<svg width="130" height="32" viewBox="0 0 130 32" fill="none" xmlns="http://www.w3.org/2000/svg">
<g opacity="0.25">
<path fill-rule="evenodd" clip-rule="evenodd" d="M9.16418 10.3359C7.967 10.3359 7 9.36133 7 8.16796C7 6.97193 7.967 6 9.16418 6C10.3574 6 11.327 6.97193 11.327 8.16796C11.327 9.36133 10.3574 10.3359 9.16418 10.3359ZM7.29632 24H11.0307V11.9761H7.29632V24ZM21.2722 24H25V17.406C25 14.168 24.3029 11.6765 20.5274 11.6765C18.7125 11.6765 17.4942 12.6749 16.9968 13.6217H16.9478V11.9761H13.3708V24H17.0973V18.053C17.0973 16.4831 17.3936 14.9662 19.3342 14.9662C21.2444 14.9662 21.2722 16.7589 21.2722 18.1538V24Z" fill="#2D334F"/>
</g>
<path d="M42.0391 19.1758H49.5039V22H38.5234V4.9375H42.0391V19.1758ZM54.8828 22H51.4844V9.32031H54.8828V22ZM51.2852 6.03906C51.2852 5.53125 51.4531 5.11328 51.7891 4.78516C52.1328 4.45703 52.5977 4.29297 53.1836 4.29297C53.7617 4.29297 54.2227 4.45703 54.5664 4.78516C54.9102 5.11328 55.082 5.53125 55.082 6.03906C55.082 6.55469 54.9062 6.97656 54.5547 7.30469C54.2109 7.63281 53.7539 7.79688 53.1836 7.79688C52.6133 7.79688 52.1523 7.63281 51.8008 7.30469C51.457 6.97656 51.2852 6.55469 51.2852 6.03906ZM60.8008 9.32031L60.9062 10.7852C61.8125 9.65234 63.0273 9.08594 64.5508 9.08594C65.8945 9.08594 66.8945 9.48047 67.5508 10.2695C68.207 11.0586 68.543 12.2383 68.5586 13.8086V22H65.1719V13.8906C65.1719 13.1719 65.0156 12.6523 64.7031 12.332C64.3906 12.0039 63.8711 11.8398 63.1445 11.8398C62.1914 11.8398 61.4766 12.2461 61 13.0586V22H57.6133V9.32031H60.8008ZM75.7422 16.9141L74.5234 18.1328V22H71.1367V4H74.5234V13.9727L75.1797 13.1289L78.4258 9.32031H82.4922L77.9102 14.6055L82.8906 22H79L75.7422 16.9141ZM89.5586 22.2344C87.6992 22.2344 86.1836 21.6641 85.0117 20.5234C83.8477 19.3828 83.2656 17.8633 83.2656 15.9648V15.6367C83.2656 14.3633 83.5117 13.2266 84.0039 12.2266C84.4961 11.2188 85.1914 10.4453 86.0898 9.90625C86.9961 9.35938 88.0273 9.08594 89.1836 9.08594C90.918 9.08594 92.2812 9.63281 93.2734 10.7266C94.2734 11.8203 94.7734 13.3711 94.7734 15.3789V16.7617H86.6992C86.8086 17.5898 87.1367 18.2539 87.6836 18.7539C88.2383 19.2539 88.9375 19.5039 89.7812 19.5039C91.0859 19.5039 92.1055 19.0312 92.8398 18.0859L94.5039 19.9492C93.9961 20.668 93.3086 21.2305 92.4414 21.6367C91.5742 22.0352 90.6133 22.2344 89.5586 22.2344ZM89.1719 11.8281C88.5 11.8281 87.9531 12.0547 87.5312 12.5078C87.1172 12.9609 86.8516 13.6094 86.7344 14.4531H91.4453V14.1836C91.4297 13.4336 91.2266 12.8555 90.8359 12.4492C90.4453 12.0352 89.8906 11.8281 89.1719 11.8281ZM96.1797 15.5664C96.1797 13.5898 96.6211 12.0156 97.5039 10.8438C98.3945 9.67188 99.6094 9.08594 101.148 9.08594C102.383 9.08594 103.402 9.54688 104.207 10.4688V4H107.605V22H104.547L104.383 20.6523C103.539 21.707 102.453 22.2344 101.125 22.2344C99.6328 22.2344 98.4336 21.6484 97.5273 20.4766C96.6289 19.2969 96.1797 17.6602 96.1797 15.5664ZM99.5664 15.8125C99.5664 17 99.7734 17.9102 100.188 18.543C100.602 19.1758 101.203 19.4922 101.992 19.4922C103.039 19.4922 103.777 19.0508 104.207 18.168V13.1641C103.785 12.2812 103.055 11.8398 102.016 11.8398C100.383 11.8398 99.5664 13.1641 99.5664 15.8125ZM114.191 22H110.676V4.9375H114.191V22ZM120.355 9.32031L120.461 10.7852C121.367 9.65234 122.582 9.08594 124.105 9.08594C125.449 9.08594 126.449 9.48047 127.105 10.2695C127.762 11.0586 128.098 12.2383 128.113 13.8086V22H124.727V13.8906C124.727 13.1719 124.57 12.6523 124.258 12.332C123.945 12.0039 123.426 11.8398 122.699 11.8398C121.746 11.8398 121.031 12.2461 120.555 13.0586V22H117.168V9.32031H120.355Z" fill="#2D334F"/>
</svg>
