<svg width="128" height="32" viewBox="0 0 128 32" fill="none" xmlns="http://www.w3.org/2000/svg">
<g opacity="0.25">
<path fill-rule="evenodd" clip-rule="evenodd" d="M15.9993 26.3333C10.3029 26.3333 5.66669 21.6982 5.66669 16.0013C5.66669 10.3032 10.3029 5.66666 15.9993 5.66666C21.6985 5.66666 26.3334 10.3032 26.3334 16.0013C26.3334 21.6982 21.6985 26.3333 15.9993 26.3333ZM17.5789 17.5176C16.2556 17.9398 15.0254 18.6063 13.8896 19.5182C12.4045 20.7134 11.4522 22.0449 10.9558 22.857C12.3694 23.9011 14.1149 24.5176 15.9993 24.5176C17.1001 24.5176 18.1509 24.3071 19.118 23.9267C18.8361 21.5538 18.275 19.4103 17.5789 17.5176ZM21.1954 16.9686C20.5681 16.9686 19.9557 17.0131 19.3608 17.1021C19.9881 18.8531 20.5182 20.8335 20.8311 23.008C22.7088 21.7117 24.0429 19.6787 24.4112 17.3288C23.2983 17.0886 22.2259 16.9686 21.1954 16.9686ZM7.48907 15.7086L7.48502 16.0013C7.48502 18.1462 8.28357 20.109 9.59607 21.6105C10.2112 20.6581 11.239 19.3172 12.7512 18.1031C13.802 17.2573 15.1819 16.4047 16.9045 15.8381C16.7156 15.4078 16.5227 14.995 16.3244 14.597C15.3788 14.8925 14.3631 15.1312 13.284 15.3107C11.3254 15.6412 9.52727 15.7167 8.26874 15.7167C7.97737 15.7167 7.71703 15.714 7.48907 15.7086ZM21.2372 15.1596C22.2515 15.1596 23.3388 15.2607 24.5002 15.4901C24.3936 13.6905 23.7246 12.0407 22.6697 10.7092C21.5164 12.0515 19.9584 13.1442 18.0402 13.9643C18.2601 14.4122 18.4759 14.8871 18.6891 15.3848C19.4795 15.2405 20.3293 15.1596 21.2372 15.1596ZM12.1752 8.39298C10.0034 9.48837 8.36181 11.4862 7.74806 13.8915C7.89374 13.8929 8.05021 13.8942 8.21748 13.8942C9.91576 13.8942 12.7215 13.7485 15.449 12.9593C14.1271 10.662 12.8186 9.10256 12.1752 8.39298ZM15.9993 7.48511C15.3141 7.48511 14.645 7.56605 14.0043 7.72118C14.6923 8.52923 15.6608 9.77975 16.6698 11.4404C16.8424 11.7277 17.0191 12.0312 17.1999 12.3523C18.8078 11.6872 20.2929 10.7443 21.3896 9.41148C19.9206 8.20817 18.0429 7.48511 15.9993 7.48511Z" fill="#2D334F"/>
</g>
<path d="M38.5234 22V4.9375H43.7734C45.2734 4.9375 46.6133 5.27734 47.793 5.95703C48.9805 6.62891 49.9062 7.58984 50.5703 8.83984C51.2344 10.082 51.5664 11.4961 51.5664 13.082V13.8672C51.5664 15.4531 51.2383 16.8633 50.582 18.0977C49.9336 19.332 49.0156 20.2891 47.8281 20.9688C46.6406 21.6484 45.3008 21.9922 43.8086 22H38.5234ZM42.0391 7.78516V19.1758H43.7383C45.1133 19.1758 46.1641 18.7266 46.8906 17.8281C47.6172 16.9297 47.9883 15.6445 48.0039 13.9727V13.0703C48.0039 11.3359 47.6445 10.0234 46.9258 9.13281C46.207 8.23438 45.1562 7.78516 43.7734 7.78516H42.0391ZM61.0352 12.4961C60.5742 12.4336 60.168 12.4023 59.8164 12.4023C58.5352 12.4023 57.6953 12.8359 57.2969 13.7031V22H53.9102V9.32031H57.1094L57.2031 10.832C57.8828 9.66797 58.8242 9.08594 60.0273 9.08594C60.4023 9.08594 60.7539 9.13672 61.082 9.23828L61.0352 12.4961ZM66.25 22H62.8516V9.32031H66.25V22ZM62.6523 6.03906C62.6523 5.53125 62.8203 5.11328 63.1562 4.78516C63.5 4.45703 63.9648 4.29297 64.5508 4.29297C65.1289 4.29297 65.5898 4.45703 65.9336 4.78516C66.2773 5.11328 66.4492 5.53125 66.4492 6.03906C66.4492 6.55469 66.2734 6.97656 65.9219 7.30469C65.5781 7.63281 65.1211 7.79688 64.5508 7.79688C63.9805 7.79688 63.5195 7.63281 63.168 7.30469C62.8242 6.97656 62.6523 6.55469 62.6523 6.03906ZM80.4766 15.7773C80.4766 17.8086 80.043 19.3945 79.1758 20.5352C78.3086 21.668 77.0977 22.2344 75.543 22.2344C74.168 22.2344 73.0703 21.707 72.25 20.6523L72.0977 22H69.0508V4H72.4375V10.457C73.2188 9.54297 74.2461 9.08594 75.5195 9.08594C77.0664 9.08594 78.2773 9.65625 79.1523 10.7969C80.0352 11.9297 80.4766 13.5273 80.4766 15.5898V15.7773ZM77.0898 15.5312C77.0898 14.25 76.8867 13.3164 76.4805 12.7305C76.0742 12.1367 75.4688 11.8398 74.6641 11.8398C73.5859 11.8398 72.8438 12.2812 72.4375 13.1641V18.168C72.8516 19.0586 73.6016 19.5039 74.6875 19.5039C75.7812 19.5039 76.5 18.9648 76.8438 17.8867C77.0078 17.3711 77.0898 16.5859 77.0898 15.5312ZM94 15.7773C94 17.8086 93.5664 19.3945 92.6992 20.5352C91.832 21.668 90.6211 22.2344 89.0664 22.2344C87.6914 22.2344 86.5938 21.707 85.7734 20.6523L85.6211 22H82.5742V4H85.9609V10.457C86.7422 9.54297 87.7695 9.08594 89.043 9.08594C90.5898 9.08594 91.8008 9.65625 92.6758 10.7969C93.5586 11.9297 94 13.5273 94 15.5898V15.7773ZM90.6133 15.5312C90.6133 14.25 90.4102 13.3164 90.0039 12.7305C89.5977 12.1367 88.9922 11.8398 88.1875 11.8398C87.1094 11.8398 86.3672 12.2812 85.9609 13.1641V18.168C86.375 19.0586 87.125 19.5039 88.2109 19.5039C89.3047 19.5039 90.0234 18.9648 90.3672 17.8867C90.5312 17.3711 90.6133 16.5859 90.6133 15.5312ZM107.523 15.7773C107.523 17.8086 107.09 19.3945 106.223 20.5352C105.355 21.668 104.145 22.2344 102.59 22.2344C101.215 22.2344 100.117 21.707 99.2969 20.6523L99.1445 22H96.0977V4H99.4844V10.457C100.266 9.54297 101.293 9.08594 102.566 9.08594C104.113 9.08594 105.324 9.65625 106.199 10.7969C107.082 11.9297 107.523 13.5273 107.523 15.5898V15.7773ZM104.137 15.5312C104.137 14.25 103.934 13.3164 103.527 12.7305C103.121 12.1367 102.516 11.8398 101.711 11.8398C100.633 11.8398 99.8906 12.2812 99.4844 13.1641V18.168C99.8984 19.0586 100.648 19.5039 101.734 19.5039C102.828 19.5039 103.547 18.9648 103.891 17.8867C104.055 17.3711 104.137 16.5859 104.137 15.5312ZM113.195 22H109.797V4H113.195V22ZM121.832 22.2344C119.973 22.2344 118.457 21.6641 117.285 20.5234C116.121 19.3828 115.539 17.8633 115.539 15.9648V15.6367C115.539 14.3633 115.785 13.2266 116.277 12.2266C116.77 11.2188 117.465 10.4453 118.363 9.90625C119.27 9.35938 120.301 9.08594 121.457 9.08594C123.191 9.08594 124.555 9.63281 125.547 10.7266C126.547 11.8203 127.047 13.3711 127.047 15.3789V16.7617H118.973C119.082 17.5898 119.41 18.2539 119.957 18.7539C120.512 19.2539 121.211 19.5039 122.055 19.5039C123.359 19.5039 124.379 19.0312 125.113 18.0859L126.777 19.9492C126.27 20.668 125.582 21.2305 124.715 21.6367C123.848 22.0352 122.887 22.2344 121.832 22.2344ZM121.445 11.8281C120.773 11.8281 120.227 12.0547 119.805 12.5078C119.391 12.9609 119.125 13.6094 119.008 14.4531H123.719V14.1836C123.703 13.4336 123.5 12.8555 123.109 12.4492C122.719 12.0352 122.164 11.8281 121.445 11.8281Z" fill="#2D334F"/>
</svg>
