<svg width="147" height="32" viewBox="0 0 147 32" fill="none" xmlns="http://www.w3.org/2000/svg">
<g opacity="0.25">
<path fill-rule="evenodd" clip-rule="evenodd" d="M22.5272 10.6761C22.5257 11.3441 21.9951 11.872 21.3259 11.872C20.6582 11.872 20.1306 11.3456 20.1262 10.6776C20.1217 10.0021 20.6597 9.46533 21.3378 9.46981C22.0026 9.47428 22.5301 10.0096 22.5272 10.6761ZM15.9665 19.3156C14.1587 19.3127 12.6862 17.8171 12.6862 15.986C12.6877 14.1549 14.1721 12.6802 16.0142 12.6802C17.8429 12.6802 19.3184 14.1683 19.3184 16.0098C19.3169 17.8514 17.828 19.3171 15.9665 19.3156ZM16.0008 10.8685C13.1661 10.867 10.8724 13.1633 10.8739 16.0054C10.8754 18.8295 13.1631 21.1244 15.9889 21.1288C18.828 21.1348 21.1292 18.84 21.1307 16.0054C21.1322 13.1633 18.8385 10.8685 16.0008 10.8685ZM23.9952 21.017C23.7299 22.7631 22.5689 23.8457 20.8132 24.038C19.2006 24.214 11.9962 24.3109 10.4998 23.8934C9.06758 23.4937 8.24936 22.5081 8.01239 21.0662C7.78436 19.6899 7.72773 12.8099 8.00941 10.9699C8.27321 9.2357 9.43123 8.15614 11.1779 7.95931C12.9485 7.76099 19.3258 7.74011 21.0219 8.00106C22.7656 8.26648 23.8461 9.42955 24.0369 11.1906C24.2158 12.8338 24.2664 19.2515 23.9952 21.017ZM25.8373 11.0176C25.7032 9.69944 25.1979 8.53637 24.2202 7.60293C23.1904 6.62029 21.9325 6.18637 20.5524 6.11331C18.2021 5.98507 12.6221 5.90306 10.6608 6.22365C8.42224 6.58748 6.95422 7.89668 6.33423 10.108C5.8588 11.8109 5.95269 19.6571 6.23139 21.3421C6.60995 23.6429 7.96917 25.1176 10.248 25.7051C11.8263 26.1121 19.5792 26.06 21.32 25.7781C23.6196 25.4054 25.1025 24.0529 25.6987 21.7775C26.1577 20.0299 25.9968 12.5922 25.8373 11.0176Z" fill="#2D334F"/>
</g>
<path d="M42.2617 22H38.7461V4.9375H42.2617V22ZM48.4258 9.32031L48.5312 10.7852C49.4375 9.65234 50.6523 9.08594 52.1758 9.08594C53.5195 9.08594 54.5195 9.48047 55.1758 10.2695C55.832 11.0586 56.168 12.2383 56.1836 13.8086V22H52.7969V13.8906C52.7969 13.1719 52.6406 12.6523 52.3281 12.332C52.0156 12.0039 51.4961 11.8398 50.7695 11.8398C49.8164 11.8398 49.1016 12.2461 48.625 13.0586V22H45.2383V9.32031H48.4258ZM65.6289 18.4961C65.6289 18.082 65.4219 17.7578 65.0078 17.5234C64.6016 17.2812 63.9453 17.0664 63.0391 16.8789C60.0234 16.2461 58.5156 14.9648 58.5156 13.0352C58.5156 11.9102 58.9805 10.9727 59.9102 10.2227C60.8477 9.46484 62.0703 9.08594 63.5781 9.08594C65.1875 9.08594 66.4727 9.46484 67.4336 10.2227C68.4023 10.9805 68.8867 11.9648 68.8867 13.1758H65.5C65.5 12.6914 65.3438 12.293 65.0312 11.9805C64.7188 11.6602 64.2305 11.5 63.5664 11.5C62.9961 11.5 62.5547 11.6289 62.2422 11.8867C61.9297 12.1445 61.7734 12.4727 61.7734 12.8711C61.7734 13.2461 61.9492 13.5508 62.3008 13.7852C62.6602 14.0117 63.2617 14.2109 64.1055 14.3828C64.9492 14.5469 65.6602 14.7344 66.2383 14.9453C68.0273 15.6016 68.9219 16.7383 68.9219 18.3555C68.9219 19.5117 68.4258 20.4492 67.4336 21.168C66.4414 21.8789 65.1602 22.2344 63.5898 22.2344C62.5273 22.2344 61.582 22.0469 60.7539 21.6719C59.9336 21.2891 59.2891 20.7695 58.8203 20.1133C58.3516 19.4492 58.1172 18.7344 58.1172 17.9688H61.3281C61.3594 18.5703 61.582 19.0312 61.9961 19.3516C62.4102 19.6719 62.9648 19.832 63.6602 19.832C64.3086 19.832 64.7969 19.7109 65.125 19.4688C65.4609 19.2188 65.6289 18.8945 65.6289 18.4961ZM75.168 6.20312V9.32031H77.3359V11.8047H75.168V18.1328C75.168 18.6016 75.2578 18.9375 75.4375 19.1406C75.6172 19.3438 75.9609 19.4453 76.4688 19.4453C76.8438 19.4453 77.1758 19.418 77.4648 19.3633V21.9297C76.8008 22.1328 76.1172 22.2344 75.4141 22.2344C73.0391 22.2344 71.8281 21.0352 71.7812 18.6367V11.8047H69.9297V9.32031H71.7812V6.20312H75.168ZM86.5703 22C86.4141 21.6953 86.3008 21.3164 86.2305 20.8633C85.4102 21.7773 84.3438 22.2344 83.0312 22.2344C81.7891 22.2344 80.7578 21.875 79.9375 21.1562C79.125 20.4375 78.7188 19.5312 78.7188 18.4375C78.7188 17.0938 79.2148 16.0625 80.207 15.3438C81.207 14.625 82.6484 14.2617 84.5312 14.2539H86.0898V13.5273C86.0898 12.9414 85.9375 12.4727 85.6328 12.1211C85.3359 11.7695 84.8633 11.5938 84.2148 11.5938C83.6445 11.5938 83.1953 11.7305 82.8672 12.0039C82.5469 12.2773 82.3867 12.6523 82.3867 13.1289H79C79 12.3945 79.2266 11.7148 79.6797 11.0898C80.1328 10.4648 80.7734 9.97656 81.6016 9.625C82.4297 9.26562 83.3594 9.08594 84.3906 9.08594C85.9531 9.08594 87.1914 9.48047 88.1055 10.2695C89.0273 11.0508 89.4883 12.1523 89.4883 13.5742V19.0703C89.4961 20.2734 89.6641 21.1836 89.9922 21.8008V22H86.5703ZM83.7695 19.6445C84.2695 19.6445 84.7305 19.5352 85.1523 19.3164C85.5742 19.0898 85.8867 18.7891 86.0898 18.4141V16.2344H84.8242C83.1289 16.2344 82.2266 16.8203 82.1172 17.9922L82.1055 18.1914C82.1055 18.6133 82.2539 18.9609 82.5508 19.2344C82.8477 19.5078 83.2539 19.6445 83.7695 19.6445ZM91.5977 15.5664C91.5977 13.6211 92.0586 12.0547 92.9805 10.8672C93.9102 9.67969 95.1602 9.08594 96.7305 9.08594C98.1211 9.08594 99.2031 9.5625 99.9766 10.5156L100.117 9.32031H103.188V21.5781C103.188 22.6875 102.934 23.6523 102.426 24.4727C101.926 25.293 101.219 25.918 100.305 26.3477C99.3906 26.7773 98.3203 26.9922 97.0938 26.9922C96.1641 26.9922 95.2578 26.8047 94.375 26.4297C93.4922 26.0625 92.8242 25.5859 92.3711 25L93.8711 22.9375C94.7148 23.8828 95.7383 24.3555 96.9414 24.3555C97.8398 24.3555 98.5391 24.1133 99.0391 23.6289C99.5391 23.1523 99.7891 22.4727 99.7891 21.5898V20.9102C99.0078 21.793 97.9805 22.2344 96.707 22.2344C95.1836 22.2344 93.9492 21.6406 93.0039 20.4531C92.0664 19.2578 91.5977 17.6758 91.5977 15.707V15.5664ZM94.9844 15.8125C94.9844 16.9609 95.2148 17.8633 95.6758 18.5195C96.1367 19.168 96.7695 19.4922 97.5742 19.4922C98.6055 19.4922 99.3438 19.1055 99.7891 18.332V13C99.3359 12.2266 98.6055 11.8398 97.5977 11.8398C96.7852 11.8398 96.1445 12.1719 95.6758 12.8359C95.2148 13.5 94.9844 14.4922 94.9844 15.8125ZM112.926 12.4961C112.465 12.4336 112.059 12.4023 111.707 12.4023C110.426 12.4023 109.586 12.8359 109.188 13.7031V22H105.801V9.32031H109L109.094 10.832C109.773 9.66797 110.715 9.08594 111.918 9.08594C112.293 9.08594 112.645 9.13672 112.973 9.23828L112.926 12.4961ZM121.562 22C121.406 21.6953 121.293 21.3164 121.223 20.8633C120.402 21.7773 119.336 22.2344 118.023 22.2344C116.781 22.2344 115.75 21.875 114.93 21.1562C114.117 20.4375 113.711 19.5312 113.711 18.4375C113.711 17.0938 114.207 16.0625 115.199 15.3438C116.199 14.625 117.641 14.2617 119.523 14.2539H121.082V13.5273C121.082 12.9414 120.93 12.4727 120.625 12.1211C120.328 11.7695 119.855 11.5938 119.207 11.5938C118.637 11.5938 118.188 11.7305 117.859 12.0039C117.539 12.2773 117.379 12.6523 117.379 13.1289H113.992C113.992 12.3945 114.219 11.7148 114.672 11.0898C115.125 10.4648 115.766 9.97656 116.594 9.625C117.422 9.26562 118.352 9.08594 119.383 9.08594C120.945 9.08594 122.184 9.48047 123.098 10.2695C124.02 11.0508 124.48 12.1523 124.48 13.5742V19.0703C124.488 20.2734 124.656 21.1836 124.984 21.8008V22H121.562ZM118.762 19.6445C119.262 19.6445 119.723 19.5352 120.145 19.3164C120.566 19.0898 120.879 18.7891 121.082 18.4141V16.2344H119.816C118.121 16.2344 117.219 16.8203 117.109 17.9922L117.098 18.1914C117.098 18.6133 117.246 18.9609 117.543 19.2344C117.84 19.5078 118.246 19.6445 118.762 19.6445ZM130.258 9.32031L130.363 10.7383C131.262 9.63672 132.477 9.08594 134.008 9.08594C135.641 9.08594 136.762 9.73047 137.371 11.0195C138.262 9.73047 139.531 9.08594 141.18 9.08594C142.555 9.08594 143.578 9.48828 144.25 10.293C144.922 11.0898 145.258 12.293 145.258 13.9023V22H141.859V13.9141C141.859 13.1953 141.719 12.6719 141.438 12.3438C141.156 12.0078 140.66 11.8398 139.949 11.8398C138.934 11.8398 138.23 12.3242 137.84 13.293L137.852 22H134.465V13.9258C134.465 13.1914 134.32 12.6602 134.031 12.332C133.742 12.0039 133.25 11.8398 132.555 11.8398C131.594 11.8398 130.898 12.2383 130.469 13.0352V22H127.082V9.32031H130.258Z" fill="#2D334F"/>
</svg>
