<svg width="102" height="30" viewBox="0 0 102 30" fill="none" xmlns="http://www.w3.org/2000/svg">
<path d="M45 18.4207C45.2122 19.7561 46.5585 20.55 48.3732 20.55C50.1878 20.55 51.3658 19.6902 51.3658 18.5195C51.3658 17.4695 50.6122 16.8732 48.6146 16.4634L46.9354 16.1341C43.7524 15.5012 42.1793 13.9793 42.1793 11.6049C42.1793 8.67805 44.7183 6.75366 48.2634 6.75366C51.9878 6.75366 54.3293 8.69634 54.3841 11.6268H51.2378C51.1244 10.2659 49.9427 9.43171 48.2634 9.43171C46.5841 9.43171 45.5122 10.2037 45.5122 11.3744C45.5122 12.3585 46.2878 12.9659 48.1646 13.3427L49.8549 13.6829C53.2244 14.3561 54.6951 15.7171 54.6951 18.1354C54.6951 21.2524 52.2512 23.228 48.2634 23.228C44.4658 23.228 41.9341 21.3988 41.8354 18.4024L45 18.4207Z" fill="#333333"/>
<path fill-rule="evenodd" clip-rule="evenodd" d="M61.8915 10.8732C58.3573 10.8732 56.0378 13.2037 56.0378 17.0378C56.0378 20.9268 58.3244 23.2244 61.8915 23.2244C65.4585 23.2244 67.7451 20.8829 67.7451 17.0378C67.7451 13.1927 65.4256 10.8732 61.8915 10.8732ZM61.9024 13.328C63.472 13.328 64.4854 14.6854 64.4854 17.0378V17.0488C64.4854 19.4232 63.4939 20.7512 61.9024 20.7512C60.311 20.7512 59.3049 19.3902 59.3049 17.0378C59.3049 14.6854 60.3329 13.328 61.9024 13.328Z" fill="#333333"/>
<path fill-rule="evenodd" clip-rule="evenodd" d="M72.6805 20.9378H72.75C73.4012 22.3171 74.7256 23.1585 76.4744 23.1476C79.4525 23.1476 81.2817 20.861 81.2817 17.0378C81.2817 13.2146 79.4451 10.928 76.4634 10.928C74.9019 10.8643 73.4566 11.7503 72.8049 13.1707H72.739V7.02805H69.5122V22.972H72.6805V20.9378ZM75.3439 20.561C73.7744 20.561 72.7171 19.1927 72.7171 17.0488C72.7171 14.9268 73.7415 13.5366 75.3439 13.5366C76.9464 13.5366 77.9634 14.8829 77.9634 17.0488C77.9634 19.2146 76.9134 20.561 75.3439 20.561Z" fill="#333333"/>
<path fill-rule="evenodd" clip-rule="evenodd" d="M87.0878 15.9878C84.1354 16.1671 82.4781 17.4146 82.4781 19.5695C82.4781 21.6988 84.1903 23.1585 86.4439 23.1439C87.9256 23.1439 89.3964 22.4049 90.0585 21.1427H90.1244V22.972H93.2378V14.8244C93.2378 12.439 91.2622 10.8695 88.2256 10.8695C85.0866 10.8695 83.1293 12.45 83.0085 14.7476H85.9573C86.1146 13.8768 86.8646 13.2841 88.0793 13.2841C89.2939 13.2841 90.0695 13.9317 90.0695 15.0293V15.8122L87.0878 15.9878ZM90.0695 17.7659V18.6293C90.0695 19.9098 88.9024 20.828 87.5122 20.8244C86.4146 20.8244 85.6829 20.2207 85.6829 19.3866C85.6829 18.5524 86.3671 18.011 87.5744 17.9232L90.0695 17.7659Z" fill="#333333"/>
<path d="M99.4024 7.61341V11.1293H101.598V13.5585H99.4024V19.2256C99.4024 20.1329 99.8415 20.561 100.793 20.561C101.056 20.5623 101.319 20.5439 101.579 20.5061V22.8805C101.073 22.9806 100.558 23.0259 100.043 23.0159C97.2585 23.0159 96.1756 22.0866 96.1756 19.778V13.5585H94.5073V11.1293H96.1756V8.47317L99.4024 7.61341Z" fill="#333333"/>
<path d="M25.3427 13.4451C24.9306 13.0307 24.3704 12.7977 23.786 12.7977C23.2016 12.7977 22.6413 13.0307 22.2293 13.4451L16.0097 19.6646C14.3445 21.3292 11.9178 21.9789 9.64365 21.3691C7.3695 20.7593 5.59345 18.9825 4.98451 16.7081C4.37557 14.4337 5.02625 12.0072 6.69146 10.3427L12.911 4.12317C13.7717 3.26242 13.7717 1.86685 12.911 1.0061C12.0502 0.145342 10.6547 0.145342 9.7939 1.0061L3.57438 7.22561C-0.719294 11.5193 -0.719294 18.4807 3.57438 22.7744C7.86806 27.0681 14.8295 27.0681 19.1232 22.7744L25.3427 16.5549C25.756 16.143 25.9883 15.5835 25.9883 15C25.9883 14.4165 25.756 13.857 25.3427 13.4451Z" fill="#7758FF"/>
<path d="M31.5585 7.22561C27.2621 2.94202 20.3098 2.94202 16.0134 7.22561L9.7939 13.4451C8.93314 14.3049 8.93232 15.6996 9.79207 16.5604C10.6518 17.4211 12.0466 17.4219 12.9073 16.5622L19.1268 10.3427C20.7907 8.67878 23.2159 8.02896 25.4888 8.63799C27.7618 9.24702 29.5371 11.0224 30.1462 13.2953C30.7552 15.5682 30.1054 17.9934 28.4415 19.6573L22.2219 25.8768C21.3612 26.7376 21.3612 28.1331 22.2219 28.9939C23.0827 29.8547 24.4783 29.8547 25.339 28.9939L31.5585 22.7744C35.8425 18.4767 35.8425 11.5233 31.5585 7.22561Z" fill="#7758FF"/>
</svg>
