<svg width="708" height="747" viewBox="0 0 708 747" fill="none" xmlns="http://www.w3.org/2000/svg">
<path fill-rule="evenodd" clip-rule="evenodd" d="M348.134 701.937H177.788L228.083 508.006H281.948C281.948 508.006 347.242 695.394 348.134 701.937ZM195.466 681.711H330.695C330.114 677.353 295.652 577.993 282.887 541.189C279.971 532.781 278.187 527.637 278.198 527.637H235.404L195.466 681.711Z" fill="#4E34BF"/>
<path fill-rule="evenodd" clip-rule="evenodd" d="M168.622 701.937H338.968C338.075 695.394 272.782 508.006 272.782 508.006H218.916L168.622 701.937ZM321.529 681.711H186.3L226.238 527.637H269.032C268.973 527.637 320.815 676.358 321.529 681.711Z" fill="#2D334F"/>
<path fill-rule="evenodd" clip-rule="evenodd" d="M707.16 701.937H536.813L587.108 508.006H640.973C640.973 508.006 706.267 695.394 707.16 701.937ZM554.49 681.711H689.719C689.141 677.515 654.955 578.848 642.068 541.653C639.059 532.97 637.212 527.637 637.223 527.637H594.428L554.49 681.711Z" fill="#4E34BF"/>
<path fill-rule="evenodd" clip-rule="evenodd" d="M527.646 701.937H697.993C697.101 695.394 631.806 508.006 631.806 508.006H578L527.646 701.937ZM680.553 681.711H545.324L585.262 527.637H628.057C627.997 527.637 679.839 676.536 680.553 681.711Z" fill="#2D334F"/>
<path fill-rule="evenodd" clip-rule="evenodd" d="M688.291 496.109H173.443V517.286H688.291V496.109Z" fill="#2D334F"/>
<path fill-rule="evenodd" clip-rule="evenodd" d="M560.919 505.091C562.169 505.27 591.095 503.782 609.547 502.771C616.927 502.355 621.569 494.74 618.593 488.018L587.405 417.882H571.096L596.392 480.582C598.892 486.828 595.024 493.729 588.417 494.859L546.158 501.998L560.919 505.091Z" fill="#2D334F"/>
<path fill-rule="evenodd" clip-rule="evenodd" d="M586.452 491.171L506.636 479.987C505.565 479.868 504.732 477.548 504.732 474.871V379.334C504.732 376.656 505.565 374.396 506.636 374.218L586.452 363.034C588.001 362.796 589.25 365.295 589.25 368.566V485.639C589.25 488.911 588.001 491.409 586.452 491.171Z" fill="#2D334F"/>
<path d="M582.226 474.098L509.553 466.603C508.481 466.484 507.648 464.223 507.648 461.546V385.996C507.648 383.319 508.481 380.999 509.553 380.88L582.226 372.016C583.715 371.838 584.965 374.336 584.965 377.549V416.811V468.566C585.024 471.778 583.774 474.276 582.226 474.098Z" fill="#7758FF"/>
<path d="M544.312 477.727C544.312 479.69 543.598 481.236 542.765 481.117C541.932 480.999 541.218 479.333 541.218 477.31C541.218 475.288 541.872 473.801 542.765 473.919C543.658 474.038 544.312 475.704 544.312 477.727Z" fill="#4E34BF"/>
<path d="M531.575 391.35L513.183 393.015C513.004 393.015 512.826 392.658 512.826 392.183C512.826 391.707 513.004 391.291 513.183 391.291L531.575 389.566C531.813 389.566 531.932 389.923 531.932 390.458C531.992 390.874 531.813 391.291 531.575 391.35Z" fill="#4E34BF"/>
<path d="M568.716 400.63L513.183 403.961C513.004 403.961 512.826 403.604 512.826 403.128C512.826 402.653 513.004 402.236 513.183 402.236L568.716 398.667C568.953 398.667 569.192 399.084 569.192 399.619C569.192 400.155 568.953 400.63 568.716 400.63Z" fill="#4E34BF"/>
<path d="M557.109 413.599L513.183 414.967C513.004 414.967 512.826 414.61 512.826 414.134C512.826 413.658 513.004 413.242 513.183 413.242L557.109 411.636C557.347 411.636 557.526 412.052 557.526 412.587C557.585 413.182 557.347 413.599 557.109 413.599Z" fill="#4E34BF"/>
<path d="M529.73 425.972L513.183 426.032C513.004 426.032 512.826 425.615 512.826 425.14C512.826 424.663 513.004 424.247 513.183 424.247L529.73 424.128C529.909 424.128 530.087 424.544 530.087 425.02C530.087 425.555 529.909 425.972 529.73 425.972Z" fill="#4E34BF"/>
<path d="M564.311 425.912L534.729 425.972C534.492 425.972 534.372 425.555 534.372 425.08C534.372 424.544 534.551 424.188 534.729 424.188L564.311 423.949C564.549 423.949 564.727 424.366 564.727 424.961C564.787 425.437 564.549 425.912 564.311 425.912Z" fill="#4E34BF"/>
<path d="M568.716 438.524L513.183 437.096C513.004 437.096 512.826 436.68 512.826 436.204C512.826 435.728 513.004 435.312 513.183 435.372L568.716 436.561C568.953 436.561 569.192 437.036 569.192 437.572C569.192 438.048 568.953 438.524 568.716 438.524Z" fill="#4E34BF"/>
<path d="M540.741 449.589L513.183 448.102C513.004 448.102 512.826 447.685 512.826 447.209C512.826 446.733 513.004 446.376 513.183 446.376L540.741 447.745C540.979 447.745 541.158 448.161 541.158 448.697C541.158 449.172 540.979 449.589 540.741 449.589Z" fill="#4E34BF"/>
<path d="M568.716 451.135L546.931 449.946C546.693 449.946 546.515 449.529 546.515 448.994C546.515 448.459 546.693 448.042 546.931 448.042L568.716 449.113C568.954 449.113 569.191 449.589 569.191 450.125C569.191 450.719 568.954 451.135 568.716 451.135Z" fill="#4E34BF"/>
<path d="M534.015 460.832L513.243 459.107C513.064 459.107 512.886 458.691 512.886 458.215C512.886 457.738 513.064 457.382 513.243 457.382L534.015 459.047C534.253 459.047 534.372 459.464 534.372 460C534.372 460.475 534.193 460.892 534.015 460.832Z" fill="#4E34BF"/>
<path fill-rule="evenodd" clip-rule="evenodd" d="M175.229 102.417C165.586 105.094 156.301 108.96 147.551 113.898L148.743 115.98C157.253 111.102 166.42 107.295 175.883 104.737L175.229 102.417ZM261.711 113.898L262.783 111.816C271.651 116.456 279.925 122.167 287.424 128.83L285.817 130.615C278.555 124.011 270.46 118.419 261.711 113.898ZM307.184 151.375L305.22 152.684C310.756 160.834 315.22 169.638 318.493 178.919L320.755 178.085C317.363 168.687 312.78 159.704 307.184 151.375ZM141.54 320.024L142.85 318.002C151.123 323.355 159.992 327.638 169.276 330.792L168.503 333.052C159.039 329.899 149.993 325.497 141.54 320.024ZM197.906 339.061L198.084 336.681C201.06 336.919 204.156 337.038 207.191 337.038C213.976 337.038 220.821 336.442 227.428 335.312L227.845 337.633C221.059 338.822 214.095 339.417 207.191 339.417C204.096 339.417 200.941 339.298 197.906 339.061Z" fill="#3065D6"/>
<path d="M207.132 327.281C267.09 327.281 315.696 278.702 315.696 218.775C315.696 158.849 267.09 110.27 207.132 110.27C147.173 110.27 98.5669 158.849 98.5669 218.775C98.5669 278.702 147.173 327.281 207.132 327.281Z" fill="#B2A0FF"/>
<path d="M250.284 117.289C251.533 122.703 255.7 144.118 243.022 161.726C225.582 186.057 186.478 188.734 181.657 180.703C180.288 178.442 180.942 174.159 183.204 172.196C185.704 169.995 190.764 170.293 193.085 172.375C198.858 177.61 192.251 198.073 182.55 209.614C162.968 232.993 124.577 227.818 118.268 226.866" stroke="#4E34BF" stroke-width="3.36"/>
<path d="M260.283 327.163C210.048 269.935 191.716 258.513 185.883 262.321C179.931 266.187 189.394 284.212 181.717 292.064C170.825 303.189 133.624 285.283 96.0074 262.618" stroke="#4E34BF" stroke-width="3.36"/>
<path fill-rule="evenodd" clip-rule="evenodd" d="M108.923 121.096C108.209 121.75 108.15 122.881 108.864 123.595C109.221 124.011 109.698 124.189 110.233 124.189C110.649 124.189 111.066 124.011 111.423 123.714C117.078 118.3 123.149 113.303 129.637 108.901C130.47 108.306 130.648 107.236 130.113 106.402C129.518 105.57 128.447 105.391 127.613 105.927C120.947 110.388 114.697 115.505 108.923 121.096ZM302.483 124.011C296.888 118.538 290.817 113.541 284.388 109.079C283.555 108.544 283.377 107.414 283.912 106.581C284.448 105.748 285.579 105.57 286.412 106.105C293.019 110.626 299.269 115.802 304.983 121.394C305.697 122.107 305.697 123.238 304.983 123.892C304.626 124.249 304.209 124.427 303.792 124.427C303.316 124.546 302.84 124.368 302.483 124.011ZM80.5917 159.823C80.1751 160.715 80.5329 161.786 81.425 162.202C81.7232 162.321 82.0206 162.381 82.3179 162.381C82.9731 162.321 83.5679 161.964 83.8661 161.369C87.3176 154.409 91.4244 147.628 96.0074 141.322C96.5433 140.548 96.3653 139.419 95.5908 138.824C94.8171 138.288 93.6865 138.467 93.0909 139.24C88.3298 145.724 84.1634 152.625 80.5917 159.823ZM329.921 161.905C326.469 154.885 322.422 148.103 317.839 141.798C317.243 141.025 317.422 139.894 318.255 139.299C319.029 138.705 320.16 138.883 320.755 139.716C325.458 146.2 329.624 153.16 333.135 160.358C333.552 161.25 333.195 162.321 332.302 162.738C332.064 162.856 331.826 162.916 331.588 162.916C330.874 162.916 330.219 162.559 329.921 161.905ZM66.069 221.512C66.069 222.464 66.8426 223.297 67.8548 223.297C68.8074 223.237 69.581 222.464 69.581 221.512C69.6407 213.719 70.3547 205.867 71.7239 198.133C72.6168 193.136 73.8071 188.139 75.2351 183.261C75.5333 182.309 74.9973 181.357 74.0448 181.06C73.0922 180.763 72.1405 181.298 71.8423 182.249C70.4143 187.246 69.1644 192.363 68.2715 197.538C66.8426 205.45 66.1286 213.54 66.069 221.512ZM97.5555 310.625C92.4962 304.379 87.9728 297.716 84.0441 290.697C83.5679 289.863 83.8661 288.734 84.6993 288.257C85.5326 287.781 86.6633 288.079 87.1395 288.912C90.9489 295.693 95.4127 302.237 100.293 308.305C100.889 309.078 100.769 310.208 100.055 310.803C99.7572 311.042 99.4002 311.16 98.9835 311.22C98.5073 311.339 97.9125 311.1 97.5555 310.625ZM155.29 352.861C162.729 355.777 170.527 358.097 178.384 359.703C178.502 359.762 178.621 359.762 178.8 359.703C179.574 359.643 180.288 359.107 180.467 358.275C180.705 357.323 180.05 356.371 179.098 356.192C171.419 354.586 163.861 352.385 156.599 349.53C155.647 349.173 154.635 349.649 154.278 350.541C153.92 351.493 154.397 352.505 155.29 352.861ZM200.525 360.714C200.466 361.725 201.239 362.498 202.251 362.558C205.584 362.677 208.977 362.618 212.31 362.558C216.952 362.379 221.655 361.963 226.297 361.309C227.309 361.19 227.964 360.238 227.845 359.286C227.725 358.275 226.774 357.62 225.821 357.74C218.083 358.81 210.167 359.226 202.37 358.989C201.359 358.989 200.584 359.703 200.525 360.714Z" fill="#4E34BF"/>
<path d="M140.55 195.744L151.866 187.939L144.056 176.629L132.741 184.434L140.55 195.744Z" fill="#4E34BF"/>
<path d="M472.293 320.797C538.695 320.797 592.524 266.998 592.524 200.632C592.524 134.266 538.695 80.4659 472.293 80.4659C405.892 80.4659 352.063 134.266 352.063 200.632C352.063 266.998 405.892 320.797 472.293 320.797Z" fill="#B2A0FF"/>
<path d="M445.867 96.7659C446.104 104.856 447.831 117.527 456.163 128.889C478.543 159.347 532.885 159.169 539.908 145.962C541.277 143.345 541.694 138.705 539.491 135.671C536.635 131.626 529.552 130.436 525.623 132.101C513.779 137.099 510.148 175.765 526.397 202.298C544.61 231.982 581.275 235.967 587.048 236.503" stroke="#4E34BF" stroke-width="3.36"/>
<path d="M565.442 237.93C568.992 237.93 571.87 235.054 571.87 231.506C571.87 227.958 568.992 225.081 565.442 225.081C561.892 225.081 559.014 227.958 559.014 231.506C559.014 235.054 561.892 237.93 565.442 237.93Z" fill="#4E34BF"/>
<path d="M453.544 130.852C457.095 130.852 459.973 127.976 459.973 124.428C459.973 120.879 457.095 118.003 453.544 118.003C449.994 118.003 447.117 120.879 447.117 124.428C447.117 127.976 449.994 130.852 453.544 130.852Z" fill="#4E34BF"/>
<path fill-rule="evenodd" clip-rule="evenodd" d="M530.385 80.5254L529.373 82.6075C538.182 86.8909 546.515 92.1257 554.193 98.2527L555.621 96.4685C547.824 90.2223 539.372 84.8681 530.385 80.5254ZM574.906 119.074L576.692 117.646C582.941 125.438 588.238 133.946 592.584 142.928L590.5 143.939C586.274 135.076 581.036 126.747 574.906 119.074ZM600.143 171.602C602.285 181.06 603.416 190.817 603.416 200.632V200.393H605.797C605.785 190.518 604.772 180.645 602.583 171.066L600.143 171.602ZM553.954 303.189C561.633 297.061 568.597 290.102 574.728 282.428L576.513 283.856C570.263 291.648 563.18 298.727 555.383 304.973L553.954 303.189ZM442.474 330.732L443.01 328.472C452.533 330.613 462.353 331.743 472.175 331.743V334.063C462.175 334.063 452.176 332.933 442.474 330.732Z" fill="#B2A0FF"/>
<path fill-rule="evenodd" clip-rule="evenodd" d="M479.495 61.9651C480.507 62.0246 481.341 62.8574 481.281 63.9282C481.221 64.9395 480.388 65.7723 479.316 65.7129C471.103 65.3559 462.77 65.7129 454.616 66.7836C453.604 66.9026 452.651 66.1887 452.533 65.1774C452.414 64.1662 453.128 63.2144 454.14 63.0954C459.02 62.441 463.96 62.0841 468.9 61.9056C472.412 61.7866 475.983 61.7866 479.495 61.9651ZM504.613 65.118C512.886 66.9026 521.04 69.4011 528.838 72.4945C529.789 72.9109 530.266 73.9816 529.909 74.9334C529.492 75.8853 528.421 76.3612 527.468 76.0043C519.85 72.9704 511.933 70.5313 503.839 68.8062C502.827 68.5683 502.173 67.6165 502.41 66.5457C502.589 65.6534 503.363 65.0585 504.196 65.0585C504.315 65.118 504.494 65.118 504.613 65.118ZM605.677 276.419C606.154 275.527 605.797 274.397 604.844 273.921C604.547 273.802 604.249 273.742 603.951 273.683C603.297 273.683 602.642 274.04 602.344 274.694C598.654 282.011 594.309 289.091 589.369 295.694C588.714 296.526 588.893 297.716 589.726 298.311C590.559 298.966 591.75 298.787 592.345 297.954C597.404 291.232 601.868 283.974 605.677 276.419Z" fill="#4E34BF"/>
<path d="M306.47 339.953C306.47 339.953 213.56 526.269 213.56 527.875C213.56 529.481 342.123 719.843 342.123 719.843C342.123 719.843 389.204 703.484 387.655 701.401C386.168 699.319 303.435 520.498 303.435 520.498L426.046 338.762L306.47 339.953Z" fill="#CCDDFF"/>
<path d="M357.777 335.907C329.862 399.381 301.947 462.795 274.032 526.269C297.185 553.217 320.339 580.225 343.492 607.173C330.159 578.262 316.767 549.35 303.435 520.439L426.046 338.703C403.25 337.751 380.513 336.859 357.777 335.907Z" fill="#94B5F6"/>
<path d="M225.225 363.212C205.107 355.181 195.347 332.456 203.382 312.35L253.557 186.652C261.592 166.545 284.329 156.789 304.447 164.819C324.565 172.851 334.326 195.575 326.29 215.682L276.115 341.38C268.08 361.427 245.284 371.243 225.225 363.212Z" fill="#7758FF"/>
<path d="M389.441 150.066C414.916 153.695 440.391 157.384 465.924 161.012C458.247 220.263 450.568 279.453 442.89 338.704C397.417 339.179 352.003 339.655 306.53 340.071C300.221 280.762 293.852 221.512 287.543 162.203C287.484 162.203 326.291 147.628 389.441 150.066Z" fill="#DB1640"/>
<path d="M298.316 264.105H452.473C453.485 256.372 454.497 248.638 455.569 240.31H295.817C296.65 248.638 297.483 256.372 298.316 264.105Z" fill="#FE3559"/>
<path d="M460.33 203.427H291.888C292.721 211.756 293.554 219.489 294.388 227.222H457.234C458.306 219.489 459.318 211.756 460.33 203.427Z" fill="#FE3559"/>
<path d="M259.45 434.36L330.992 418.714L336.767 339.655H295.103L259.45 434.36Z" fill="#94B5F6"/>
<path d="M336.766 339.833C328.433 475.407 320.1 611.039 311.708 746.613C335.516 746.018 359.324 745.422 383.132 744.828C396.405 650.361 410.094 555.954 424.2 461.606C430.332 420.677 436.522 379.809 442.831 338.941C407.476 339.239 372.121 339.476 336.766 339.833Z" fill="#CCDDFF"/>
<path d="M324.862 153.457V413.42L261.592 429.78L287.245 162.202C291.948 160.655 297.007 159.169 302.423 157.8C310.399 155.837 317.898 154.469 324.862 153.457Z" fill="#7758FF"/>
<path d="M395.096 340.071L388.311 438.643L424.618 458.929L442.831 338.941L395.096 340.071Z" fill="#94B5F6"/>
<path d="M261.592 429.779L274.449 295.455" stroke="#030333" stroke-width="2.52" stroke-linecap="round" stroke-linejoin="round"/>
<path d="M392.12 150.483L384.382 429.541L461.758 450.362L465.924 161.072C465.865 161.012 408.13 151.137 392.12 150.483Z" fill="#7758FF"/>
<path d="M534.015 351.791C514.671 361.427 491.161 353.515 481.519 334.182L422.951 216.515C413.308 197.181 421.224 173.684 440.569 164.047C459.913 154.409 483.423 162.321 493.065 181.655L551.634 299.322C561.275 318.656 553.419 342.153 534.015 351.791Z" fill="#7758FF"/>
<path d="M540.979 347.388C539.551 348.578 538.003 349.589 536.456 350.482C495.208 374.396 415.987 307.948 392.06 287.008C396.941 278.323 401.881 269.578 406.761 260.893C439.676 266.009 465.746 274.218 483.899 281.119C535.265 300.512 541.396 315.682 543.062 321.868C545.801 331.684 543.419 341.082 540.979 347.388Z" fill="#7758FF"/>
<path d="M367.24 101.108L388.311 150.126C388.311 150.126 342.718 193.79 334.385 167.139V112.529C334.385 112.471 345.099 83.6185 367.24 101.108Z" fill="#F8FAFE"/>
<path d="M333.79 128.116C331.35 142.214 336.945 154.171 344.683 156.67C354.563 159.823 365.574 146.617 369.859 137.812C378.847 119.49 368.609 100.096 367.062 97.2413C363.55 100.096 359.979 103.071 356.349 106.283C348.016 113.6 340.516 120.977 333.79 128.116Z" fill="#94B5F6"/>
<path d="M374.264 87.3067C379.145 109.317 362.896 135.016 347.837 135.73C329.267 136.622 309.03 99.6211 316.768 76.599C317.541 74.3384 320.101 66.605 327.719 61.8459C338.075 55.3618 350.039 59.7639 352.063 60.4777C369.324 66.8429 374.026 86.2953 374.264 87.3067Z" fill="#F8FAFE"/>
<path fill-rule="evenodd" clip-rule="evenodd" d="M367.716 98.9667C366.05 97.8361 363.61 95.9326 361.824 92.8985C357.36 85.3436 361.764 79.3949 357.955 73.2082C354.92 68.3302 347.777 65.0583 342.361 66.4266C335.814 68.0922 335.814 75.5877 327.243 78.8595C326.172 79.276 321.648 80.8822 317.065 79.6924C307.006 77.1939 298.792 62.2624 302.185 53.3987C307.839 38.5861 349.027 32.2804 366.407 50.2458C370.097 54.0531 372.002 58.2767 373.013 61.1322C374.442 61.2511 379.323 61.846 382.179 65.7127C382.179 65.7127 383.786 67.8543 384.263 71.0071C385.156 77.3128 378.728 88.0803 367.716 98.9667Z" fill="#2D334F"/>
<path fill-rule="evenodd" clip-rule="evenodd" d="M363.432 106.105C362.955 106.462 362.062 107.116 360.812 107.593C352.837 110.686 346.408 101.941 337.183 102.119C330.338 102.238 324.326 107.294 321.351 112.054C315.636 121.275 318.255 134.421 326.112 141.203C332.778 146.974 341.29 146.438 342.123 146.319C364.86 144.475 376.645 105.927 374.205 104.261C373.43 103.725 371.049 106.522 366.109 106.462C365.038 106.402 364.086 106.283 363.432 106.105Z" fill="#2D334F"/>
<path d="M330.576 115.98L346.765 112.173C347.48 111.994 348.194 112.529 348.254 113.243C348.551 117.408 346.647 121.155 343.492 122.821C339.564 124.844 335.338 122.761 334.683 122.464C332.123 121.215 330.635 119.192 329.862 117.765C329.445 116.991 329.802 116.158 330.576 115.98Z" fill="#F8FAFE"/>
<path d="M321.821 101.37C322.753 101.782 323.875 101.288 324.327 100.267C324.78 99.2456 324.391 98.083 323.458 97.6714C322.527 97.259 321.405 97.7529 320.953 98.7743C320.5 99.7958 320.889 100.958 321.821 101.37Z" fill="#030333"/>
<path d="M344.438 98.9919C345.37 99.4035 346.492 98.9096 346.944 97.8881C347.397 96.8667 347.008 95.7041 346.075 95.2925C345.144 94.8801 344.022 95.374 343.57 96.3955C343.118 97.4177 343.507 98.5795 344.438 98.9919Z" fill="#030333"/>
<path d="M317.898 88.7346C319.565 87.7829 322.839 86.2961 326.766 86.7119C328.136 86.8312 329.802 87.0689 331.409 88.2592C334.326 90.46 334.504 93.9099 334.564 94.3862L330.099 106.938C332.481 106.522 334.802 106.165 337.182 105.748" stroke="#030333" stroke-width="2.52" stroke-linecap="round" stroke-linejoin="round"/>
<path d="M338.552 88.5566C339.087 87.5452 340.575 84.9278 343.73 83.2617C347.658 81.1797 351.408 81.8935 352.42 82.0719" stroke="#030333" stroke-width="2.52" stroke-linecap="round" stroke-linejoin="round"/>
<path d="M363.371 95.6352C367.597 89.1513 373.847 87.0689 376.763 88.9724C379.502 90.7574 379.799 96.3492 377.953 100.096C376.228 103.547 372.954 104.975 372.419 105.213C368.55 106.819 363.431 106.105 363.431 106.105C363.371 102.595 363.371 99.1448 363.371 95.6352Z" fill="#F8FAFE"/>
<path d="M406.761 260.893C395.988 257.086 385.215 253.278 374.383 249.471C366.466 253.04 358.491 256.61 350.574 260.179C344.325 267.02 337.182 277.609 336.706 290.934C336.409 299.262 338.73 307.71 340.872 307.77C342.956 307.888 343.671 299.976 350.812 289.744C352.658 287.127 354.384 285.104 355.515 283.795C355.812 285.7 356.645 289.209 359.324 292.362C365.633 299.917 376.109 298.43 376.585 298.37C383.132 297.359 387.001 292.957 392.001 287.127C396.345 282.071 402.476 273.564 406.761 260.893Z" fill="#F8FAFE"/>
<path d="M391.108 255.36C390.453 255.123 374.323 242.928 368.729 238.942C363.133 234.956 352.598 240.251 367.479 255.36C382.358 270.47 391.108 255.36 391.108 255.36Z" fill="#F8FAFE"/>
<path d="M165.527 319.846C169.872 327.936 181.835 347.508 205.822 358.155C213.322 361.487 242.189 374.277 264.152 359.346C278.675 349.471 288.793 328.412 282.008 316.217C278.377 309.673 270.58 306.818 253.439 304.319C235.166 301.642 208.322 299.738 174.574 304.319C172.848 305.866 170.527 308.305 168.562 311.874C166.836 314.908 166.003 317.763 165.527 319.846Z" fill="#7758FF"/>
<path d="M165.825 307.353C165.825 307.353 169.515 277.966 174.038 278.62C178.562 279.216 180.883 300.572 178.562 304.914C176.241 309.257 168.205 313.54 165.825 307.353Z" fill="#F8FAFE"/>
<g opacity="0.5">
<path opacity="0.5" d="M493.84 308.126L484.971 316.99C483.841 318.12 481.935 318.12 480.805 316.99C479.674 315.86 479.674 313.956 480.805 312.826L489.673 303.962C490.804 302.832 492.708 302.832 493.84 303.962C494.971 305.093 494.971 306.996 493.84 308.126Z" fill="#3549C4"/>
<path opacity="0.5" d="M432.772 315.503L423.903 324.307C422.772 325.437 420.868 325.437 419.737 324.307C418.606 323.177 418.606 321.274 419.737 320.143L428.605 311.279C429.736 310.149 431.641 310.149 432.772 311.279C433.902 312.469 433.902 314.313 432.772 315.503Z" fill="#3549C4"/>
<path opacity="0.5" d="M530.742 291.172L521.873 300.036C520.743 301.166 518.838 301.166 517.707 300.036C516.576 298.906 516.576 297.002 517.707 295.872L526.575 287.008C527.706 285.878 529.611 285.878 530.742 287.008C531.932 288.198 531.932 290.041 530.742 291.172Z" fill="#3549C4"/>
<path opacity="0.5" d="M438.962 232.279L430.094 241.143C428.962 242.273 427.058 242.273 425.928 241.143C424.796 240.013 424.796 238.109 425.928 236.979L434.795 228.115C435.927 226.984 437.831 226.984 438.962 228.115C440.152 229.245 440.152 231.089 438.962 232.279Z" fill="#3549C4"/>
<path opacity="0.5" d="M438.962 270.233L430.094 279.096C428.962 280.226 427.058 280.226 425.928 279.096C424.796 277.966 424.796 276.062 425.928 274.932L434.795 266.069C435.927 264.938 437.831 264.938 438.962 266.069C440.152 267.199 440.152 269.042 438.962 270.233Z" fill="#3549C4"/>
<path opacity="0.5" d="M469.436 204.617L460.567 213.481C459.437 214.611 457.533 214.611 456.401 213.481C455.27 212.351 455.27 210.447 456.401 209.317L465.27 200.453C466.4 199.322 468.306 199.322 469.436 200.453C470.567 201.642 470.567 203.487 469.436 204.617Z" fill="#3549C4"/>
<path opacity="0.5" d="M411.643 217.586L402.774 226.449C401.643 227.58 399.738 227.58 398.607 226.449C397.477 225.319 397.477 223.415 398.607 222.285L407.476 213.422C408.607 212.291 410.511 212.291 411.643 213.422C412.773 214.611 412.773 216.455 411.643 217.586Z" fill="#3549C4"/>
<path opacity="0.5" d="M436.938 173.386L428.07 182.249C426.939 183.38 425.035 183.38 423.903 182.249C422.772 181.12 422.772 179.216 423.903 178.085L432.772 169.222C433.902 168.091 435.808 168.091 436.938 169.222C438.069 170.352 438.069 172.256 436.938 173.386Z" fill="#3549C4"/>
<path opacity="0.5" d="M499.97 236.801L491.101 245.664C489.971 246.794 488.066 246.794 486.935 245.664C485.804 244.534 485.804 242.63 486.935 241.5L495.804 232.636C496.934 231.506 498.839 231.506 499.97 232.636C501.16 233.767 501.16 235.67 499.97 236.801Z" fill="#3549C4"/>
<path opacity="0.5" d="M518.898 322.463L527.766 331.327C528.897 332.456 528.897 334.361 527.766 335.491C526.635 336.621 524.731 336.621 523.599 335.491L514.731 326.627C513.6 325.497 513.6 323.593 514.731 322.463C515.862 321.273 517.766 321.273 518.898 322.463Z" fill="#3549C4"/>
<path opacity="0.5" d="M473.246 326.806L482.114 335.669C483.245 336.799 483.245 338.703 482.114 339.833C480.984 340.964 479.079 340.964 477.948 339.833L469.079 330.97C467.949 329.839 467.949 327.936 469.079 326.806C470.21 325.675 472.115 325.675 473.246 326.806Z" fill="#3549C4"/>
<path opacity="0.5" d="M456.163 260.298L465.032 269.162C466.163 270.292 466.163 272.196 465.032 273.326C463.901 274.456 461.996 274.456 460.866 273.326L451.997 264.462C450.866 263.332 450.866 261.429 451.997 260.298C453.128 259.109 455.033 259.109 456.163 260.298Z" fill="#3549C4"/>
<path opacity="0.5" d="M435.451 333.587L444.319 342.451C445.45 343.581 445.45 345.485 444.319 346.616C443.188 347.745 441.284 347.745 440.153 346.616L431.284 337.751C430.154 336.621 430.154 334.718 431.284 333.587C432.415 332.457 434.32 332.457 435.451 333.587Z" fill="#3549C4"/>
<path opacity="0.5" d="M409.202 401.819L418.071 410.683C419.202 411.814 419.202 413.717 418.071 414.848C416.94 415.978 415.035 415.978 413.905 414.848L405.036 405.984C403.905 404.854 403.905 402.95 405.036 401.819C406.167 400.69 408.012 400.69 409.202 401.819Z" fill="#3549C4"/>
<path opacity="0.5" d="M409.202 374.634L418.071 383.497C419.202 384.628 419.202 386.531 418.071 387.662C416.94 388.792 415.035 388.792 413.905 387.662L405.036 378.798C403.905 377.668 403.905 375.764 405.036 374.634C406.167 373.444 408.012 373.444 409.202 374.634Z" fill="#3549C4"/>
<path opacity="0.5" d="M401.821 238.466L410.69 247.33C411.821 248.46 411.821 250.363 410.69 251.494C409.559 252.624 407.654 252.624 406.524 251.494L397.655 242.63C396.524 241.5 396.524 239.596 397.655 238.466C398.786 237.276 400.631 237.276 401.821 238.466Z" fill="#3549C4"/>
<path opacity="0.5" d="M508.481 252.922L517.35 261.786C518.48 262.915 518.48 264.819 517.35 265.949C516.219 267.079 514.314 267.079 513.183 265.949L504.315 257.086C503.184 255.955 503.184 254.052 504.315 252.922C505.446 251.732 507.35 251.732 508.481 252.922Z" fill="#3549C4"/>
<path opacity="0.5" d="M416.523 286.651L425.392 295.515C426.522 296.646 426.522 298.549 425.392 299.679C424.261 300.809 422.356 300.809 421.225 299.679L412.356 290.815C411.226 289.685 411.226 287.781 412.356 286.651C413.547 285.521 415.392 285.521 416.523 286.651Z" fill="#3549C4"/>
<path opacity="0.5" d="M431.284 195.575L440.152 204.439C441.284 205.569 441.284 207.473 440.152 208.603C439.021 209.733 437.117 209.733 435.986 208.603L427.118 199.739C425.986 198.609 425.986 196.706 427.118 195.575C428.248 194.445 430.153 194.445 431.284 195.575Z" fill="#3549C4"/>
<path opacity="0.5" d="M458.484 228.175L467.353 237.038C468.484 238.168 468.484 240.072 467.353 241.202C466.222 242.333 464.317 242.333 463.187 241.202L454.318 232.339C453.187 231.208 453.187 229.304 454.318 228.175C455.509 227.044 457.354 227.044 458.484 228.175Z" fill="#3549C4"/>
<path opacity="0.5" d="M491.161 200.453L500.03 209.317C501.16 210.447 501.16 212.351 500.03 213.481C498.899 214.611 496.994 214.611 495.863 213.481L486.995 204.617C485.864 203.487 485.864 201.584 486.995 200.453C488.126 199.322 489.971 199.322 491.161 200.453Z" fill="#3549C4"/>
<path opacity="0.5" d="M463.544 172.434L472.412 181.298C473.543 182.428 473.543 184.332 472.412 185.462C471.282 186.592 469.377 186.592 468.246 185.462L459.377 176.599C458.247 175.468 458.247 173.565 459.377 172.434C460.509 171.304 462.413 171.304 463.544 172.434Z" fill="#3549C4"/>
<path opacity="0.5" d="M401.821 169.222L410.69 178.085C411.821 179.216 411.821 181.12 410.69 182.249C409.559 183.38 407.654 183.38 406.524 182.249L397.655 173.386C396.524 172.256 396.524 170.352 397.655 169.222C398.786 168.091 400.631 168.091 401.821 169.222Z" fill="#3549C4"/>
<path opacity="0.5" d="M264.152 347.508L255.283 356.371C254.153 357.501 252.247 357.501 251.117 356.371C249.986 355.241 249.986 353.337 251.117 352.207L259.986 343.343C261.116 342.213 263.021 342.213 264.152 343.343C265.283 344.474 265.283 346.377 264.152 347.508Z" fill="#3549C4"/>
<path opacity="0.5" d="M287.9 398.607L279.032 407.471C277.901 408.602 275.996 408.602 274.865 407.471C273.735 406.341 273.735 404.438 274.865 403.307L283.734 394.443C284.865 393.314 286.77 393.314 287.9 394.443C289.031 395.574 289.031 397.478 287.9 398.607Z" fill="#3549C4"/>
<path opacity="0.5" d="M287.9 360.654L279.032 369.518C277.901 370.648 275.996 370.648 274.865 369.518C273.735 368.387 273.735 366.484 274.865 365.354L283.734 356.491C284.865 355.36 286.77 355.36 287.9 356.491C289.031 357.62 289.031 359.524 287.9 360.654Z" fill="#3549C4"/>
<path opacity="0.5" d="M316.529 166.01L307.661 174.873C306.53 176.003 304.626 176.003 303.495 174.873C302.364 173.743 302.364 171.839 303.495 170.709L312.363 161.846C313.494 160.715 315.399 160.715 316.529 161.846C317.661 162.976 317.661 164.879 316.529 166.01Z" fill="#3549C4"/>
<path opacity="0.5" d="M319.326 198.728L310.459 207.591C309.327 208.722 307.423 208.722 306.292 207.591C305.161 206.462 305.161 204.558 306.292 203.427L315.16 194.564C316.292 193.433 318.196 193.433 319.326 194.564C320.458 195.694 320.458 197.538 319.326 198.728Z" fill="#3549C4"/>
<path opacity="0.5" d="M296.114 196.349L287.245 205.212C286.115 206.342 284.21 206.342 283.079 205.212C281.948 204.082 281.948 202.178 283.079 201.048L291.948 192.184C293.078 191.054 294.983 191.054 296.114 192.184C297.245 193.315 297.245 195.158 296.114 196.349Z" fill="#3549C4"/>
<path opacity="0.5" d="M216 342.035L224.868 350.899C225.999 352.028 225.999 353.932 224.868 355.063C223.738 356.193 221.833 356.193 220.702 355.063L211.833 346.199C210.703 345.068 210.703 343.165 211.833 342.035C213.024 340.904 214.869 340.904 216 342.035Z" fill="#3549C4"/>
<path opacity="0.5" d="M300.28 179.811L309.149 188.675C310.28 189.805 310.28 191.709 309.149 192.838C308.018 193.969 306.113 193.969 304.983 192.838L296.114 183.975C294.983 182.845 294.983 180.941 296.114 179.811C297.304 178.68 299.15 178.68 300.28 179.811Z" fill="#3549C4"/>
<path opacity="0.5" d="M301.293 387.067L310.16 395.93C311.292 397.061 311.292 398.964 310.16 400.095C309.03 401.225 307.125 401.225 305.994 400.095L297.066 391.231C295.935 390.101 295.935 388.197 297.066 387.067C298.257 385.937 300.101 385.937 301.293 387.067Z" fill="#3549C4"/>
<path opacity="0.5" d="M303.792 363.867L312.66 372.73C313.792 373.861 313.792 375.764 312.66 376.894C311.53 378.025 309.625 378.025 308.494 376.894L299.626 368.03C298.494 366.901 298.494 364.996 299.626 363.867C300.757 362.677 302.601 362.677 303.792 363.867Z" fill="#3549C4"/>
<path opacity="0.5" d="M303.792 335.967L312.66 344.831C313.792 345.961 313.792 347.865 312.66 348.994C311.53 350.125 309.625 350.125 308.494 348.994L299.626 340.131C298.494 339.001 298.494 337.097 299.626 335.967C300.757 334.836 302.601 334.836 303.792 335.967Z" fill="#3549C4"/>
<path opacity="0.5" d="M262.664 193.136L271.532 201.999C272.664 203.13 272.664 205.033 271.532 206.164C270.402 207.294 268.497 207.294 267.366 206.164L258.498 197.3C257.366 196.17 257.366 194.266 258.498 193.136C259.629 191.946 261.533 191.946 262.664 193.136Z" fill="#3549C4"/>
<path opacity="0.5" d="M274.985 171.482L283.852 180.346C284.984 181.477 284.984 183.38 283.852 184.511C282.722 185.64 280.818 185.64 279.686 184.511L270.818 175.647C269.687 174.516 269.687 172.613 270.818 171.482C271.949 170.293 273.853 170.293 274.985 171.482Z" fill="#3549C4"/>
<path opacity="0.5" d="M457.89 307.413L449.021 298.549C447.89 297.418 447.89 295.515 449.021 294.384C450.152 293.255 452.057 293.255 453.187 294.384L462.056 303.248C463.187 304.379 463.187 306.282 462.056 307.413C460.866 308.543 459.02 308.543 457.89 307.413Z" fill="#3549C4"/>
<path opacity="0.5" d="M492.59 278.502L483.721 287.365C482.591 288.495 480.685 288.495 479.555 287.365C478.424 286.235 478.424 284.331 479.555 283.201L488.423 274.337C489.554 273.207 491.458 273.207 492.59 274.337C493.78 275.468 493.78 277.371 492.59 278.502Z" fill="#3549C4"/>
<path opacity="0.5" d="M408.964 346.199L400.096 355.063C398.964 356.193 397.06 356.193 395.929 355.063C394.798 353.932 394.798 352.028 395.929 350.899L404.797 342.035C405.929 340.904 407.833 340.904 408.964 342.035C410.155 343.165 410.155 345.068 408.964 346.199Z" fill="#3549C4"/>
<path opacity="0.5" d="M436.938 360.654L428.07 369.518C426.939 370.648 425.035 370.648 423.903 369.518C422.772 368.387 422.772 366.484 423.903 365.354L432.772 356.491C433.902 355.36 435.808 355.36 436.938 356.491C438.069 357.62 438.069 359.524 436.938 360.654Z" fill="#3549C4"/>
<path opacity="0.5" d="M441.938 420.083L433.069 428.946C431.939 430.076 430.034 430.076 428.903 428.946C427.772 427.816 427.772 425.912 428.903 424.783L437.772 415.919C438.902 414.788 440.807 414.788 441.938 415.919C443.128 417.049 443.128 418.952 441.938 420.083Z" fill="#3549C4"/>
<path opacity="0.5" d="M449.318 380.345L440.45 389.209C439.319 390.338 437.415 390.338 436.284 389.209C435.152 388.078 435.152 386.174 436.284 385.044L445.152 376.18C446.283 375.05 448.188 375.05 449.318 376.18C450.45 377.37 450.45 379.214 449.318 380.345Z" fill="#3549C4"/>
</g>
<path d="M190.169 302.653C201.596 328.65 222.25 345.247 241.653 343.997C243.856 343.879 261.473 342.748 270.104 329.542C271.056 328.055 275.699 320.976 274.271 315.682C270.164 300.572 220.405 301.047 190.169 302.653Z" fill="#4E34BF"/>
<path d="M449.259 270.827C480.745 281.892 503.898 290.22 513.897 294.384C515.862 295.218 519.552 296.11 520.386 294.861C522.052 292.362 511.457 281.416 503.124 275.884C484.852 263.807 461.877 267.496 449.259 270.827Z" fill="#4E34BF"/>
<path d="M449.616 270.887C449.259 270.887 448.961 270.708 448.843 270.411L420.213 212.173C419.975 211.756 420.153 211.22 420.63 210.982C421.046 210.745 421.582 210.923 421.82 211.399L450.45 269.638C450.687 270.054 450.509 270.59 450.033 270.827C449.854 270.827 449.735 270.887 449.616 270.887Z" fill="#030333"/>
<path d="M433.069 237.158C432.831 237.158 432.653 237.098 432.474 236.919L413.07 219.251C412.713 218.894 412.654 218.359 413.012 218.002C413.369 217.645 413.904 217.586 414.262 217.943L433.665 235.61C434.022 235.967 434.081 236.503 433.724 236.859C433.545 237.098 433.308 237.158 433.069 237.158Z" fill="#030333"/>
<path d="M502.53 290.815C502.41 290.815 502.291 290.815 502.173 290.756C457.711 270.47 407.179 261.844 406.643 261.786C406.167 261.726 405.81 261.25 405.929 260.774C405.988 260.298 406.464 259.941 406.94 260.06C407.476 260.12 458.247 268.805 502.887 289.209C503.363 289.388 503.541 289.923 503.303 290.399C503.184 290.637 502.887 290.815 502.53 290.815Z" fill="#030333"/>
<path d="M283.853 328.947C281.651 337.633 276.532 351.017 264.33 359.226C242.724 373.682 206.299 366.959 179.038 338.405" stroke="#030333" stroke-width="2.52" stroke-linecap="round" stroke-linejoin="round"/>
<path d="M324.565 404.14C323.91 404.14 323.374 403.604 323.374 402.95L323.493 153.993C323.493 153.338 324.029 152.803 324.684 152.803C325.338 152.803 325.874 153.338 325.874 153.993L325.755 402.95C325.755 403.604 325.219 404.14 324.565 404.14Z" fill="#030333"/>
<path fill-rule="evenodd" clip-rule="evenodd" d="M348.254 313.837H191.24L149.278 212.588H306.291L348.254 313.837Z" stroke="#F8FAFE" stroke-width="1.68" stroke-linejoin="round"/>
<path d="M343.492 318.596H186.478L144.517 217.348H301.53L343.492 318.596Z" fill="#2ACDF6"/>
<path d="M254.45 267.971C256.83 273.742 254.093 278.442 248.32 278.442C242.546 278.442 235.88 273.742 233.499 267.971C231.118 262.201 233.856 257.502 239.63 257.502C245.403 257.502 252.069 262.201 254.45 267.971Z" fill="#7758FF"/>
<path d="M343.492 318.18H186.478V328.947H343.492V318.18Z" fill="#58DDFF"/>
<path d="M406.94 318.18H343.492V328.947H406.94V318.18Z" fill="#2ACDF6"/>
<path d="M359.622 321.809H350.217V325.497H359.622V321.809Z" fill="#4E34BF"/>
<path d="M375.216 321.809H365.812V325.497H375.216V321.809Z" fill="#4E34BF"/>
<path d="M195.406 287.96C205.049 287.722 212.667 292.124 215.166 293.612C217.072 294.741 222.309 297.835 221.773 299.917C221.178 302.296 213.5 301.939 212.786 301.88C213.322 302.178 216.714 303.962 217.547 307.829C217.726 308.662 218.262 311.16 216.714 313.242C215.702 314.67 214.214 315.146 213.619 315.325C214.214 316.157 216.893 319.965 215.643 323.355C215.286 324.248 214.333 326.032 210.405 327.46C200.763 330.85 180.585 328.947 175.943 328.472C173.145 327.044 162.908 321.571 162.075 313.064C160.944 300.631 180.05 288.377 195.406 287.96Z" fill="#F8FAFE"/>
<path d="M336.945 288.852C336.885 288.852 336.885 288.852 336.825 288.852C336.35 288.792 335.992 288.377 336.052 287.9C336.588 282.725 339.028 269.697 350.456 260.179C356.884 254.825 364.562 251.672 372.538 251.077C376.525 250.78 380.573 251.137 384.561 252.148C385.037 252.267 385.335 252.743 385.215 253.219C385.097 253.695 384.621 253.992 384.144 253.874C380.394 252.921 376.525 252.565 372.716 252.862C365.098 253.457 357.836 256.431 351.646 261.607C340.754 270.708 338.373 283.201 337.897 288.138C337.778 288.495 337.421 288.852 336.945 288.852Z" fill="#030333"/>
<path d="M515.862 356.728C497.411 356.728 472.948 346.794 442.771 326.984C414.619 308.543 391.703 287.96 391.465 287.721C391.287 287.543 391.167 287.306 391.167 287.067C391.108 285.7 390.751 284.926 390.155 284.629C387.537 283.558 380.156 289.269 376.168 293.135C375.811 293.492 375.276 293.492 374.919 293.135C374.562 292.778 374.562 292.243 374.919 291.886C376.049 290.815 386.287 281.178 390.81 283.022C392.06 283.558 392.774 284.748 392.953 286.651C395.631 289.03 417.356 308.186 443.783 325.497C480.745 349.708 509.97 359.226 528.361 353.04C528.838 352.861 529.313 353.158 529.492 353.575C529.671 354.051 529.373 354.527 528.956 354.706C524.969 356.074 520.623 356.728 515.862 356.728Z" fill="#030333"/>
<path d="M384.322 286.472C384.263 286.472 384.203 286.472 384.144 286.472L375.335 284.569C374.859 284.45 374.562 283.974 374.68 283.498C374.799 283.022 375.276 282.725 375.752 282.844L384.561 284.748C385.036 284.866 385.335 285.343 385.215 285.818C385.096 286.235 384.739 286.472 384.322 286.472Z" fill="#030333"/>
<path d="M358.789 292.54C358.491 292.54 358.253 292.421 358.075 292.183C357.896 291.946 353.67 286.115 354.86 279.81C355.515 276.36 357.658 273.385 361.229 271.125C361.646 270.887 362.182 271.005 362.479 271.422C362.717 271.839 362.598 272.374 362.182 272.671C359.027 274.694 357.122 277.193 356.586 280.166C355.515 285.758 359.443 291.112 359.443 291.172C359.741 291.589 359.622 292.124 359.265 292.421C359.146 292.481 358.967 292.54 358.789 292.54Z" fill="#030333"/>
<path d="M366.526 298.489C366.229 298.489 365.991 298.37 365.812 298.132C365.633 297.895 361.408 292.064 362.598 285.759C363.253 282.308 365.395 279.334 368.966 277.074C369.383 276.836 369.919 276.954 370.216 277.371C370.455 277.788 370.335 278.323 369.919 278.62C366.765 280.643 364.86 283.142 364.324 286.116C363.253 291.707 367.181 297.061 367.181 297.121C367.479 297.538 367.359 298.073 367.002 298.37C366.883 298.43 366.705 298.489 366.526 298.489Z" fill="#030333"/>
<path d="M215.643 324.307C215.524 324.307 215.405 324.307 215.286 324.247C214.809 324.069 214.631 323.534 214.869 323.058C214.929 322.938 215.702 321.154 214.691 318.715C213.441 315.8 210.108 313.242 204.929 311.279C204.453 311.1 204.215 310.565 204.393 310.149C204.572 309.673 205.108 309.435 205.525 309.614C211.298 311.814 214.929 314.611 216.358 318.12C217.667 321.273 216.536 323.712 216.536 323.831C216.358 324.129 216.001 324.307 215.643 324.307Z" fill="#030333"/>
<path d="M217.786 311.339C217.726 311.339 217.666 311.339 217.607 311.339C217.13 311.279 216.773 310.803 216.893 310.328C216.952 309.971 218.023 302.118 203.858 299.381C203.381 299.262 203.084 298.846 203.144 298.31C203.263 297.835 203.679 297.538 204.215 297.596C220.226 300.69 218.679 310.506 218.679 310.625C218.559 311.042 218.202 311.339 217.786 311.339Z" fill="#030333"/>
<path d="M320.696 604.079C320.636 604.079 320.636 604.079 320.696 604.079C320.16 604.019 319.803 603.603 319.803 603.127L332.898 388.375C332.898 387.9 333.374 387.483 333.849 387.543C334.326 387.543 334.742 388.018 334.683 388.495L321.589 603.246C321.529 603.722 321.112 604.079 320.696 604.079Z" fill="#030333"/>
<path d="M288.734 543.639C288.555 543.639 288.376 543.58 288.257 543.461C287.841 543.164 287.721 542.628 288.019 542.212L326.886 484.092C327.183 483.676 327.719 483.557 328.136 483.854C328.552 484.151 328.671 484.687 328.373 485.103L289.507 543.223C289.328 543.521 289.031 543.639 288.734 543.639Z" fill="#030333"/>
<path d="M304.923 547.565C304.447 547.565 304.03 547.208 304.03 546.733L302.542 521.094C302.542 520.617 302.899 520.201 303.375 520.142C303.851 520.142 304.268 520.499 304.327 520.974L305.815 546.614C305.815 547.15 305.458 547.565 304.923 547.565Z" fill="#030333"/>
<path d="M330.934 157.8C330.934 157.8 330.695 159.227 330.576 161.369" stroke="#030333" stroke-width="1.68" stroke-linecap="round" stroke-linejoin="round"/>
<path d="M330.695 168.27C331.945 181.12 340.218 197.479 381.585 164.641" stroke="#030333" stroke-width="1.68" stroke-linecap="round" stroke-linejoin="round" stroke-dasharray="9.77"/>
<path d="M384.263 162.499C385.156 161.786 386.108 161.012 387.001 160.239" stroke="#030333" stroke-width="1.68" stroke-linecap="round" stroke-linejoin="round"/>
<path fill-rule="evenodd" clip-rule="evenodd" d="M312.542 94.6835C312.542 94.6835 323.91 91.5898 329.088 93.4345L329.862 103.785C329.862 103.785 319.862 113.422 314.029 105.451L312.542 94.6835Z" stroke="#DB1640" stroke-width="2.52" stroke-linecap="round" stroke-linejoin="round"/>
<path fill-rule="evenodd" clip-rule="evenodd" d="M355.693 89.8644C355.693 89.8644 343.908 89.2697 339.266 92.1845L340.754 102.476C340.754 102.476 352.599 109.734 356.586 100.692L355.693 89.8644Z" stroke="#DB1640" stroke-width="2.52" stroke-linecap="round" stroke-linejoin="round"/>
<path d="M329.326 96.587C329.326 96.587 332.481 92.4827 339.682 95.4572" stroke="#DB1640" stroke-width="2.52" stroke-linecap="round" stroke-linejoin="round"/>
<path d="M226.123 62.9678L229.575 66.417L270.441 25.5729L266.989 22.1237L226.123 62.9678Z" fill="#1388C0"/>
<path d="M229.571 66.4266L224.035 68.5682L226.118 62.9762L229.571 66.4266Z" fill="#F699B0"/>
<path d="M266.982 22.1528L270.433 25.602L272.664 23.3726L269.213 19.9234L266.982 22.1528Z" fill="#DB1640"/>
<path d="M275.163 17.4085C276.115 18.3603 276.115 19.907 275.163 20.8588L272.663 23.3573L269.211 19.907L271.711 17.4085C272.722 16.4567 274.271 16.4567 275.163 17.4085Z" fill="#030333"/>
<path d="M223.738 69.401C223.619 69.401 223.44 69.3415 223.381 69.2225C223.142 68.9846 223.142 68.6871 223.381 68.4492L224.511 67.3189C224.69 67.1404 225.107 67.1404 225.285 67.3189C225.404 67.4379 225.464 67.5569 225.464 67.6758C225.464 67.7948 225.404 67.9733 225.285 68.0328L224.154 69.1631C224.035 69.3415 223.857 69.401 223.738 69.401Z" fill="#DB1640"/>
<path fill-rule="evenodd" clip-rule="evenodd" d="M257.902 89.9837C257.069 89.6267 256.652 88.675 257.009 87.8426L264.926 68.0328L267.961 69.2226L260.045 89.032C259.687 89.8653 258.736 90.2811 257.902 89.9837Z" stroke="#F8FAFE" stroke-width="0.84" stroke-linejoin="round"/>
<path fill-rule="evenodd" clip-rule="evenodd" d="M233.106 121.979L237.638 123.79L259.45 69.2738L254.919 67.4626L233.106 121.979Z" fill="#2D334F"/>
<path d="M237.606 123.892L233.321 128.056L233.082 122.108L237.606 123.892Z" fill="#0A138C"/>
<path fill-rule="evenodd" clip-rule="evenodd" d="M257.019 64.8475L259.727 65.9298L261.892 60.5168L259.185 59.4345L257.019 64.8475Z" fill="#2D334F"/>
<path d="M254.924 67.4927L259.455 69.3039L260.648 66.3213L256.116 64.5101L254.924 67.4927Z" fill="#0A138C"/>
<path d="M256.95 87.8426C256.116 87.4856 255.7 86.5338 256.058 85.7006L263.378 67.3785L266.414 68.5683L259.093 86.9496C258.736 87.7829 257.783 88.1996 256.95 87.8426Z" fill="#0A138C"/>
<path d="M262.245 70.3523L259.482 69.248L257.846 73.3353L260.61 74.4397L262.245 70.3523Z" fill="#0A138C"/>
<path d="M226.097 33.7353L228.202 35.8385L231.316 32.7257L229.211 30.6225L226.097 33.7353Z" fill="#FE3559"/>
<path fill-rule="evenodd" clip-rule="evenodd" d="M212.905 42.2744C213.56 42.9288 214.572 42.9288 215.226 42.2744L230.344 27.1645L228.024 24.8444L212.905 39.9544C212.251 40.6088 212.251 41.62 212.905 42.2744Z" stroke="#F8FAFE" stroke-width="0.84" stroke-linejoin="round"/>
<path d="M235.326 37.6744L231.876 34.2251L190.336 75.7423L193.788 79.1915L235.326 37.6744Z" fill="#FE3559"/>
<path d="M193.81 79.1654L190.36 75.7162L188.087 77.9876L191.537 81.4368L193.81 79.1654Z" fill="#DB1640"/>
<path d="M215.167 42.3341C215.822 42.9884 216.834 42.9884 217.488 42.3341L231.476 28.3544L229.154 26.0343L215.167 40.014C214.512 40.6089 214.512 41.6796 215.167 42.3341Z" fill="#DB1640"/>
<path d="M217.255 46.682L222.936 52.3606L239.182 36.1239L233.5 30.4453L217.255 46.682Z" fill="#DB1640"/>
<path d="M233.545 30.4172L239.227 36.0959L241.205 34.1189L235.523 28.4402L233.545 30.4172Z" fill="#FE3559"/>
<path d="M221.551 91.6864L195.248 65.3968L164.356 96.272L190.66 122.561L221.551 91.6864Z" fill="#7758FF"/>
<path d="M178.264 127.223C188.521 127.223 196.835 118.913 196.835 108.663C196.835 98.4123 188.521 90.103 178.264 90.103C168.009 90.103 159.695 98.4123 159.695 108.663C159.695 118.913 168.009 127.223 178.264 127.223Z" fill="#4E34BF"/>
<path fill-rule="evenodd" clip-rule="evenodd" d="M230.039 88.9791L197.8 56.7581L192.245 62.3105L224.484 94.5315L230.039 88.9791Z" fill="#2D334F"/>
<path fill-rule="evenodd" clip-rule="evenodd" d="M420.273 71.8995C420.273 71.8995 427.654 -1.86563 482.293 16.6946C536.933 35.2549 502.114 101.822 502.114 101.822L503.78 105.748C524.076 83.0832 530.623 53.7556 520.029 31.7451C512.589 16.2187 498.602 8.60427 496.221 7.35502C495.269 6.81962 472.353 -4.78053 449.438 4.73755C426.047 14.4936 411.346 42.6909 415.988 73.3272L420.273 71.8995Z" stroke="#F8FAFE" stroke-width="0.84"/>
<path d="M424.201 72.2565C424.201 72.2565 430.927 5.51098 480.328 22.2866C529.731 39.0622 498.244 99.3833 498.244 99.3833L499.732 102.952C518.123 82.4289 524.016 55.8973 514.433 36.0283C507.649 21.9892 495.09 15.0886 492.887 13.9583C491.994 13.4824 471.282 2.95299 450.569 11.5787C429.379 20.383 416.106 45.9033 420.332 73.6247L424.201 72.2565Z" fill="#F8FAFE"/>
<path d="M443.069 53.6367L446.403 53.8746C450.093 54.1126 452.949 57.3249 452.712 61.0132L450.45 95.7545C450.212 99.4421 446.997 102.298 443.307 102.06L439.974 101.822C436.284 101.584 433.427 98.372 433.665 94.6835L435.927 59.9425C436.165 56.2542 439.379 53.3988 443.069 53.6367Z" fill="#DB1640"/>
<path fill-rule="evenodd" clip-rule="evenodd" d="M434.915 59.9425L435.927 60.0019L433.665 94.6239L432.653 94.5642C423.963 93.9695 417.356 86.4742 417.892 77.7889L418.07 74.6955C418.666 65.9507 426.165 59.3476 434.915 59.9425Z" fill="#2D334F"/>
<path d="M418.071 69.5201H418.368C419.618 69.5795 420.63 70.7099 420.511 71.9591L419.916 80.7038C419.856 81.9531 418.725 82.9644 417.475 82.8454H417.178C415.928 82.7859 414.916 81.6556 415.035 80.4064L415.63 71.6617C415.69 70.3529 416.821 69.4011 418.071 69.5201Z" fill="#4E34BF"/>
<path d="M495.447 73.0298L492.768 71.0072C489.793 68.7466 485.567 69.401 483.305 72.3754L462.413 100.216C460.152 103.19 460.806 107.414 463.782 109.674L466.461 111.697C469.436 113.957 473.662 113.303 475.924 110.329L496.816 82.4883C499.018 79.4545 498.423 75.2308 495.447 73.0298Z" fill="#DB1640"/>
<path fill-rule="evenodd" clip-rule="evenodd" d="M497.59 83.1428L496.756 82.5479L475.924 110.329L476.758 110.924C483.721 116.159 493.661 114.731 498.898 107.771L500.744 105.273C505.981 98.2527 504.553 88.3777 497.59 83.1428Z" fill="#2D334F"/>
<path d="M504.137 101.346L503.898 101.167C502.887 100.395 501.458 100.632 500.684 101.644L495.387 108.663C494.614 109.674 494.851 111.102 495.863 111.876L496.101 112.054C497.113 112.828 498.541 112.589 499.315 111.578L504.613 104.559C505.327 103.547 505.148 102.06 504.137 101.346Z" fill="#4E34BF"/>
<path d="M499.791 12.0545C501.271 12.0545 502.47 10.856 502.47 9.37749C502.47 7.89907 501.271 6.70056 499.791 6.70056C498.312 6.70056 497.113 7.89907 497.113 9.37749C497.113 10.856 498.312 12.0545 499.791 12.0545Z" fill="#F8FAFE"/>
<path d="M441.224 94.8616C440.986 94.7432 440.807 94.5046 440.807 94.2073L443.069 60.1804C443.069 59.8235 443.367 59.5855 443.724 59.5855C444.081 59.5855 444.319 59.8829 444.319 60.2398L442.057 94.2669C442.057 94.6239 441.76 94.8616 441.403 94.8616C441.343 94.9213 441.284 94.9213 441.224 94.8616Z" fill="#030333"/>
<path d="M469.555 105.332C469.496 105.332 469.436 105.273 469.377 105.273C469.079 105.034 469.02 104.677 469.258 104.38L489.733 77.075C489.971 76.7776 490.328 76.718 490.625 76.956C490.923 77.194 490.983 77.5509 490.744 77.8483L470.269 105.153C470.151 105.391 469.853 105.451 469.555 105.332Z" fill="#030333"/>
<path fill-rule="evenodd" clip-rule="evenodd" d="M121.899 260.536L18.6317 280.94C16.2509 281.416 13.9892 279.87 13.513 277.49L0.478149 211.459C0.00195301 209.079 1.54949 206.819 3.9303 206.342L107.257 185.938C109.638 185.462 111.899 187.009 112.376 189.389L125.411 255.42C125.827 257.74 124.28 260.06 121.899 260.536Z" fill="#2D334F"/>
<path d="M110.174 259.525L21.9649 276.955C19.5842 277.431 17.3224 275.884 16.8462 273.504L5.0018 213.897C4.52561 211.518 6.07314 209.258 8.45395 208.782L96.6626 191.352C99.0432 190.875 101.305 192.423 101.782 194.802L113.566 254.409C114.102 256.729 112.555 259.049 110.174 259.525Z" fill="#FE3559"/>
<path fill-rule="evenodd" clip-rule="evenodd" d="M112.792 226.449C114.37 226.449 115.649 225.171 115.649 223.594C115.649 222.017 114.37 220.739 112.792 220.739C111.215 220.739 109.935 222.017 109.935 223.594C109.935 225.171 111.215 226.449 112.792 226.449Z" stroke="#F8FAFE" stroke-width="0.84"/>
<path d="M22.5007 276.836L21.9649 276.955C19.5842 277.431 17.3224 275.884 16.8462 273.504L5.0018 213.897C4.52561 211.518 6.07314 209.257 8.45395 208.782L8.98962 208.662L22.5007 276.836Z" fill="#F8FAFE"/>
<path d="M44.0316 210.715L18.2237 215.814L18.6968 218.206L44.5048 213.108L44.0316 210.715Z" fill="#F699B0"/>
<path d="M92.2669 211.255L20.1562 225.5L20.6294 227.892L92.7398 213.647L92.2669 211.255Z" fill="#DB1640"/>
<path d="M57.2771 228.289L22.0684 235.244L22.5416 237.637L57.7503 230.681L57.2771 228.289Z" fill="#DB1640"/>
<path d="M94.1594 220.95L64.1479 226.879L64.6208 229.271L94.6332 223.342L94.1594 220.95Z" fill="#DB1640"/>
<path d="M70.2547 235.762L23.9523 244.908L24.4255 247.301L70.7276 238.155L70.2547 235.762Z" fill="#DB1640"/>
<path d="M96.0687 230.677L78.3766 234.172L78.8496 236.565L96.5417 233.07L96.0687 230.677Z" fill="#DB1640"/>
<path d="M97.9873 240.411L25.8772 254.657L26.3503 257.049L98.4611 242.804L97.9873 240.411Z" fill="#DB1640"/>
<path d="M83.8493 253.243L27.7959 264.316L28.269 266.709L84.3222 255.635L83.8493 253.243Z" fill="#DB1640"/>
<path fill-rule="evenodd" clip-rule="evenodd" d="M20.6736 201.543L6.95211 204.254L7.24065 205.713L20.9621 203.002L20.6736 201.543Z" fill="#2D334F"/>
<path d="M109.637 259.644L110.173 259.525C112.554 259.049 114.102 256.788 113.626 254.409L101.84 194.743C101.364 192.363 99.1028 190.817 96.7214 191.292L96.1863 191.411L109.637 259.644Z" fill="#F8FAFE"/>
<path fill-rule="evenodd" clip-rule="evenodd" d="M672.547 75.3537L630.924 33.7524L571.582 93.0623L613.206 134.664L672.547 75.3537Z" stroke="#F8FAFE" stroke-width="1.68" stroke-linejoin="round"/>
<path fill-rule="evenodd" clip-rule="evenodd" d="M567.423 90.8313L574.578 97.9822L631.311 41.2803L624.156 34.1293L567.423 90.8313Z" fill="#2D334F"/>
<path d="M621.31 51.3481L614.156 44.1973L611.546 46.8052L618.701 53.9561L621.31 51.3481Z" fill="#4E34BF"/>
<path d="M613.752 58.9028L606.596 51.7519L603.987 54.3599L611.142 61.5107L613.752 58.9028Z" fill="#4E34BF"/>
<path d="M666.078 75.9594L631.356 41.2567L574.623 97.9587L609.345 132.662L666.078 75.9594Z" fill="#4E34BF"/>
<path d="M652.515 77.256L630.041 54.7939L624.822 60.0098L647.297 82.4719L652.515 77.256Z" fill="#FE3559"/>
<path fill-rule="evenodd" clip-rule="evenodd" d="M634.857 204.123L646.388 192.597L587.341 133.581L575.809 145.107L634.857 204.123Z" stroke="#F8FAFE" stroke-width="1.68" stroke-linejoin="round"/>
<path fill-rule="evenodd" clip-rule="evenodd" d="M661.805 150.483L647.044 193.255L590.262 136.563L605.082 93.7914L661.805 150.483Z" fill="#2D334F"/>
<path d="M638.474 201.826L647.059 193.245L590.326 136.542L581.741 145.124L638.474 201.826Z" fill="#7758FF"/>
<path fill-rule="evenodd" clip-rule="evenodd" d="M600.335 146.609L591.749 155.19L594.359 157.799L602.945 149.217L600.335 146.609Z" fill="#2D334F"/>
<path fill-rule="evenodd" clip-rule="evenodd" d="M607.894 154.164L599.309 162.745L601.918 165.353L610.504 156.772L607.894 154.164Z" fill="#2D334F"/>
<path d="M669.84 147.152L647.043 193.255L590.262 136.563L613.117 90.4004L669.84 147.152Z" fill="#58DDFF"/>
<path d="M676.566 147.331L647.044 193.255L590.262 136.563L619.843 90.5785L676.566 147.331Z" fill="#F8FAFE"/>
<path fill-rule="evenodd" clip-rule="evenodd" d="M632.119 94.6793L590.242 136.532L646.975 193.235L688.852 151.381L632.119 94.6793Z" fill="#2D334F"/>
<path d="M632.214 109.52L605.11 136.61L610.329 141.825L637.433 114.736L632.214 109.52Z" fill="#FE3559"/>
<path fill-rule="evenodd" clip-rule="evenodd" d="M635.773 244.995L596.527 236.136L581.121 304.315L620.367 313.174L635.773 244.995Z" stroke="#F8FAFE" stroke-width="0.84" stroke-linejoin="round"/>
<path fill-rule="evenodd" clip-rule="evenodd" d="M638.337 249.039L599.091 240.18L583.684 308.359L622.929 317.218L638.337 249.039Z" fill="#2D334F"/>
<path d="M633.399 254.262L601.294 247.014L596.193 269.586L628.298 276.833L633.399 254.262Z" fill="#DB1640"/>
<path d="M607.82 306.996C615.742 306.996 622.164 300.578 622.164 292.66C622.164 284.742 615.742 278.323 607.82 278.323C599.898 278.323 593.476 284.742 593.476 292.66C593.476 300.578 599.898 306.996 607.82 306.996Z" fill="#5EBBDA"/>
<path d="M607.701 299.798C611.711 299.798 614.963 296.549 614.963 292.54C614.963 288.532 611.711 285.283 607.701 285.283C603.691 285.283 600.44 288.532 600.44 292.54C600.44 296.549 603.691 299.798 607.701 299.798Z" fill="#F8FAFE"/>
<path d="M628.864 274.354L596.759 267.106L596.182 269.66L628.287 276.906L628.864 274.354Z" fill="#F8FAFE"/>
<path d="M633.397 254.246L601.292 246.999L600.715 249.552L632.82 256.799L633.397 254.246Z" fill="#F8FAFE"/>
<path fill-rule="evenodd" clip-rule="evenodd" d="M639.663 255.716L636.993 255.113L634.842 264.629L637.513 265.232L639.663 255.716Z" fill="#2D334F"/>
<path fill-rule="evenodd" clip-rule="evenodd" d="M636.699 268.74L634.028 268.138L631.878 277.653L634.548 278.256L636.699 268.74Z" fill="#2D334F"/>
<path fill-rule="evenodd" clip-rule="evenodd" d="M600.678 289.328L601.511 289.685C602.88 286.771 606.094 285.164 609.249 285.937C609.904 286.057 610.618 286.354 611.213 286.711L611.689 285.937C610.975 285.521 610.201 285.223 609.427 285.045C605.856 284.212 602.166 286.057 600.678 289.328ZM605.909 300.005C605.952 300.016 605.994 300.026 606.034 300.036C610.201 300.988 614.13 299.203 615.32 294.087L614.427 293.909C613.475 298.132 609.963 299.917 606.273 299.084C606.171 299.059 606.069 299.033 605.967 299.008C605.831 298.974 605.695 298.94 605.559 298.906L605.261 299.798C605.459 299.897 605.698 299.955 605.909 300.005Z" fill="#2D334F"/>
<path d="M618.432 267.508L605.062 257.566L604.706 258.043L618.077 267.986L618.432 267.508Z" fill="#F8FAFE"/>
<path d="M624.904 266.495L611.535 256.551L611.18 257.029L624.55 266.972L624.904 266.495Z" fill="#F8FAFE"/>
<path d="M554.027 28.5073L544.305 18.7905L534.583 28.5073L544.305 38.2241L554.027 28.5073Z" fill="#4E34BF"/>
<path d="M673.69 297.209L661.229 291.401L655.417 303.854L667.878 309.663L673.69 297.209Z" fill="#B2A0FF"/>
<path d="M65.2542 301.692L52.7933 295.884L46.9815 308.338L59.4423 314.146L65.2542 301.692Z" fill="#4E34BF"/>
<path d="M223.892 439.458L215.529 428.551L204.615 436.908L212.977 447.816L223.892 439.458Z" fill="#B2A0FF"/>
<path d="M141.143 76.372L132.781 65.4639L121.867 73.8215L130.229 84.7295L141.143 76.372Z" fill="#B2A0FF"/>
<path d="M649.187 254.171C649.365 254.052 649.663 253.932 649.901 253.932L685.971 254.944C686.625 254.944 687.161 255.539 687.101 256.194C687.101 256.848 686.506 257.383 685.851 257.324L649.782 256.312C649.127 256.312 648.591 255.717 648.651 255.063C648.711 254.706 648.89 254.409 649.187 254.171Z" fill="#B2A0FF"/>
<path d="M648.055 243.285C648.115 243.285 648.115 243.225 648.175 243.225L688.648 219.786C689.243 219.429 689.958 219.668 690.255 220.203C690.612 220.798 690.375 221.512 689.839 221.809L649.365 245.248C648.769 245.605 648.055 245.367 647.758 244.831C647.461 244.296 647.579 243.642 648.055 243.285Z" fill="#B2A0FF"/>
<path d="M668.65 205.391C669.066 205.093 669.721 205.093 670.137 205.45C670.614 205.867 670.673 206.64 670.257 207.116L643.949 237.157C643.532 237.633 642.758 237.693 642.282 237.276C641.806 236.859 641.747 236.087 642.164 235.61L668.471 205.569C668.471 205.51 668.53 205.45 668.65 205.391Z" fill="#B2A0FF"/>
<path d="M170.526 279.929L224.809 217.109H144.517L170.526 279.929Z" fill="#58DDFF"/>
</svg>
